font.ufo
<glyph name="dollar" format="2">
	<unicode hex="0024"/>
	<advance width="540"/>
	<outline>
		<contour>
			<point x="246" y="-12" type="curve" smooth="yes"/>
			<point x="404" y="-12"/>
			<point x="480" y="76"/>
			<point x="480" y="194" type="curve" smooth="yes"/>
			<point x="480" y="376"/>
			<point x="222" y="380"/>
			<point x="222" y="456" type="curve" smooth="yes"/>
			<point x="222" y="494"/>
			<point x="243" y="508"/>
			<point x="282" y="508" type="curve" smooth="yes"/>
			<point x="320" y="508"/>
			<point x="356" y="492"/>
			<point x="390" y="462" type="curve"/>
			<point x="476" y="556" type="line"/>
			<point x="426" y="610"/>
			<point x="364" y="646"/>
			<point x="276" y="646" type="curve" smooth="yes"/>
			<point x="141" y="646"/>
			<point x="58" y="570"/>
			<point x="58" y="448" type="curve" smooth="yes"/>
			<point x="58" y="273"/>
			<point x="316" y="262"/>
			<point x="316" y="180" type="curve" smooth="yes"/>
			<point x="316" y="144"/>
			<point x="296" y="126"/>
			<point x="246" y="126" type="curve" smooth="yes"/>
			<point x="204" y="126"/>
			<point x="162" y="136"/>
			<point x="110" y="178" type="curve"/>
			<point x="34" y="72" type="line"/>
			<point x="94" y="12"/>
			<point x="172" y="-12"/>
		</contour>
		<contour>
			<point x="212" y="-110" type="line"/>
			<point x="324" y="-110" type="line"/>
			<point x="324" y="60" type="line"/>
			<point x="212" y="60" type="line"/>
		</contour>
		<contour>
			<point x="212" y="594" type="line"/>
			<point x="324" y="594" type="line"/>
			<point x="324" y="744" type="line"/>
			<point x="212" y="744" type="line"/>
		</contour>
	</outline>
</glyph>
<glyph name="L" format="2">
	<unicode hex="004C"/>
	<advance width="530"/>
	<outline>
		<contour>
			<point x="72" y="0" type="line"/>
			<point x="490" y="0" type="line"/>
			<point x="490" y="144" type="line"/>
			<point x="244" y="144" type="line"/>
			<point x="244" y="650" type="line"/>
			<point x="72" y="650" type="line"/>
		</contour>
	</outline>
	<anchor name="aboveUC" x="160" y="672"/>
	<anchor name="belowLC" x="290" y="-22"/>
	<anchor name="center" x="160" y="350"/>
</glyph>
<glyph name="O" format="2">
	<unicode hex="004F"/>
	<advance width="692"/>
	<outline>
		<contour>
			<point x="346" y="-12" type="curve" smooth="yes"/>
			<point x="526" y="-12"/>
			<point x="648" y="114"/>
			<point x="648" y="328" type="curve" smooth="yes"/>
			<point x="648" y="541"/>
			<point x="526" y="662"/>
			<point x="346" y="662" type="curve" smooth="yes"/>
			<point x="166" y="662"/>
			<point x="44" y="542"/>
			<point x="44" y="328" type="curve" smooth="yes"/>
			<point x="44" y="114"/>
			<point x="166" y="-12"/>
		</contour>
		<contour>
			<point x="346" y="136" type="curve" smooth="yes"/>
			<point x="268" y="136"/>
			<point x="220" y="210"/>
			<point x="220" y="328" type="curve" smooth="yes"/>
			<point x="220" y="446"/>
			<point x="268" y="514"/>
			<point x="346" y="514" type="curve" smooth="yes"/>
			<point x="424" y="514"/>
			<point x="472" y="446"/>
			<point x="472" y="328" type="curve" smooth="yes"/>
			<point x="472" y="210"/>
			<point x="424" y="136"/>
		</contour>
	</outline>
	<anchor name="aboverightUC" x="610" y="672"/>
	<anchor name="aboveUC" x="346" y="672"/>
	<anchor name="belowLC" x="346" y="-22"/>
	<anchor name="hornLC" x="490" y="640"/>
	<anchor name="ogonekUC" x="346" y="0"/>
</glyph>
<glyph name="X" format="2">
	<unicode hex="0058"/>
	<advance width="588"/>
	<outline>
		<contour>
			<point x="10" y="0" type="line"/>
			<point x="194" y="0" type="line"/>
			<point x="242" y="116" type="line" smooth="yes"/>
			<point x="256" y="150"/>
			<point x="270" y="184"/>
			<point x="284" y="224" type="curve"/>
			<point x="288" y="224" type="line"/>
			<point x="304" y="184"/>
			<point x="318" y="150"/>
			<point x="334" y="116" type="curve" smooth="yes"/>
			<point x="386" y="0" type="line"/>
			<point x="578" y="0" type="line"/>
			<point x="402" y="326" type="line"/>
			<point x="568" y="650" type="line"/>
			<point x="384" y="650" type="line"/>
			<point x="346" y="544" type="line" smooth="yes"/>
			<point x="334" y="514"/>
			<point x="320" y="478"/>
			<point x="306" y="436" type="curve"/>
			<point x="302" y="436" type="line"/>
			<point x="284" y="478"/>
			<point x="270" y="514"/>
			<point x="256" y="544" type="curve" smooth="yes"/>
			<point x="212" y="650" type="line"/>
			<point x="20" y="650" type="line"/>
			<point x="186" y="334" type="line"/>
		</contour>
	</outline>
	<anchor name="aboveUC" x="294" y="672"/>
	<anchor name="belowLC" x="282" y="-22"/>
</glyph>
<glyph name="bracketright" format="2">
	<unicode hex="005D"/>
	<advance width="360"/>
	<outline>
		<contour>
			<point x="52" y="-152" type="line"/>
			<point x="276" y="-152" type="line"/>
			<point x="276" y="708" type="line"/>
			<point x="52" y="708" type="line"/>
			<point x="52" y="618" type="line"/>
			<point x="148" y="618" type="line"/>
			<point x="148" y="-62" type="line"/>
			<point x="52" y="-62" type="line"/>
		</contour>
	</outline>
</glyph>
<glyph name="f" format="2">
	<unicode hex="0066"/>
	<advance width="360"/>
	<outline>
		<contour>
			<point x="88" y="0" type="line"/>
			<point x="260" y="0" type="line"/>
			<point x="260" y="512" type="line" smooth="yes"/>
			<point x="260" y="558"/>
			<point x="280" y="574"/>
			<point x="312" y="574" type="curve" smooth="yes"/>
			<point x="328" y="574"/>
			<point x="344" y="572"/>
			<point x="360" y="568" type="curve"/>
			<point x="392" y="690" type="line"/>
			<point x="370" y="698"/>
			<point x="332" y="708"/>
			<point x="286" y="708" type="curve" smooth="yes"/>
			<point x="138" y="708"/>
			<point x="88" y="613"/>
			<point x="88" y="506" type="curve" smooth="yes"/>
		</contour>
		<contour>
			<point x="14" y="366" type="line"/>
			<point x="344" y="366" type="line"/>
			<point x="344" y="500" type="line"/>
			<point x="100" y="500" type="line"/>
			<point x="14" y="494" type="line"/>
		</contour>
	</outline>
	<anchor name="aboveUC" x="250" y="722"/>
	<anchor name="belowLC" x="174" y="-22"/>
	<anchor name="center" x="180" y="220"/>
</glyph>
<glyph name="h" format="2">
	<unicode hex="0068"/>
	<advance width="582"/>
	<outline>
		<contour>
			<point x="58" y="0" type="line"/>
			<point x="230" y="0" type="line"/>
			<point x="230" y="328" type="line"/>
			<point x="256" y="352"/>
			<point x="274" y="366"/>
			<point x="306" y="366" type="curve" smooth="yes"/>
			<point x="340" y="366"/>
			<point x="356" y="350"/>
			<point x="356" y="286" type="curve" smooth="yes"/>
			<point x="356" y="0" type="line"/>
			<point x="528" y="0" type="line"/>
			<point x="528" y="308" type="line" smooth="yes"/>
			<point x="528" y="432"/>
			<point x="482" y="512"/>
			<point x="372" y="512" type="curve" smooth="yes"/>
			<point x="304" y="512"/>
			<point x="256" y="478"/>
			<point x="222" y="448" type="curve"/>
			<point x="230" y="534" type="line"/>
			<point x="230" y="696" type="line"/>
			<point x="58" y="696" type="line"/>
		</contour>
	</outline>
	<anchor name="aboveUC" x="320" y="722"/>
	<anchor name="belowLC" x="300" y="-22"/>
</glyph>
<glyph name="r" format="2">
	<unicode hex="0072"/>
	<advance width="418"/>
	<outline>
		<contour>
			<point x="58" y="0" type="line"/>
			<point x="230" y="0" type="line"/>
			<point x="230" y="278" type="line"/>
			<point x="254" y="340"/>
			<point x="298" y="362"/>
			<point x="334" y="362" type="curve" smooth="yes"/>
			<point x="356" y="362"/>
			<point x="368" y="360"/>
			<point x="386" y="356" type="curve"/>
			<point x="418" y="502" type="line"/>
			<point x="404" y="508"/>
			<point x="387" y="512"/>
			<point x="356" y="512" type="curve" smooth="yes"/>
			<point x="307" y="512"/>
			<point x="251" y="482"/>
			<point x="214" y="414" type="curve"/>
			<point x="210" y="414" type="line"/>
			<point x="198" y="500" type="line"/>
			<point x="58" y="500" type="line"/>
		</contour>
	</outline>
	<anchor name="aboveLC" x="260" y="522"/>
	<anchor name="belowLC" x="140" y="-22"/>
	<anchor name="center" x="150" y="210"/>
</glyph>
<glyph name="v" format="2">
	<unicode hex="0076"/>
	<advance width="544"/>
	<outline>
		<contour>
			<point x="176" y="0" type="line"/>
			<point x="374" y="0" type="line"/>
			<point x="532" y="500" type="line"/>
			<point x="368" y="500" type="line"/>
			<point x="314" y="282" type="line" smooth="yes"/>
			<point x="302" y="232"/>
			<point x="290" y="180"/>
			<point x="278" y="126" type="curve"/>
			<point x="274" y="126" type="line"/>
			<point x="262" y="180"/>
			<point x="250" y="232"/>
			<point x="238" y="282" type="curve" smooth="yes"/>
			<point x="184" y="500" type="line"/>
			<point x="12" y="500" type="line"/>
		</contour>
	</outline>
	<anchor name="aboveLC" x="274" y="522"/>
	<anchor name="belowLC" x="274" y="-22"/>
</glyph>
<glyph name="germandbls" format="2">
	<unicode hex="00DF"/>
	<advance width="654"/>
	<outline>
		<contour>
			<point x="434" y="-12" type="curve" smooth="yes"/>
			<point x="564" y="-12"/>
			<point x="628" y="64"/>
			<point x="628" y="158" type="curve" smooth="yes"/>
			<point x="628" y="308"/>
			<point x="474" y="312"/>
			<point x="474" y="366" type="curve" smooth="yes"/>
			<point x="474" y="410"/>
			<point x="552" y="438"/>
			<point x="552" y="532" type="curve" smooth="yes"/>
			<point x="552" y="620"/>
			<point x="470" y="706"/>
			<point x="322" y="706" type="curve" smooth="yes"/>
			<point x="146" y="706"/>
			<point x="58" y="604"/>
			<point x="58" y="472" type="curve" smooth="yes"/>
			<point x="58" y="0" type="line"/>
			<point x="228" y="0" type="line"/>
			<point x="228" y="454" type="line" smooth="yes"/>
			<point x="228" y="526"/>
			<point x="264" y="574"/>
			<point x="322" y="574" type="curve" smooth="yes"/>
			<point x="358" y="574"/>
			<point x="388" y="548"/>
			<point x="388" y="512" type="curve" smooth="yes"/>
			<point x="388" y="442"/>
			<point x="318" y="416"/>
			<point x="318" y="344" type="curve" smooth="yes"/>
			<point x="318" y="216"/>
			<point x="472" y="210"/>
			<point x="472" y="150" type="curve" smooth="yes"/>
			<point x="472" y="128"/>
			<point x="454" y="114"/>
			<point x="428" y="114" type="curve" smooth="yes"/>
			<point x="400" y="114"/>
			<point x="368" y="120"/>
			<point x="336" y="140" type="curve"/>
			<point x="282" y="36" type="line"/>
			<point x="332" y="0"/>
			<point x="379" y="-12"/>
		</contour>
	</outline>
</glyph>
<glyph name="aogonek" format="2">
	<unicode hex="0105"/>
	<advance width="536"/>
	<outline>
		<contour>
			<point x="406" y="-220" type="curve" smooth="yes"/>
			<point x="444" y="-220"/>
			<point x="492" y="-206"/>
			<point x="522" y="-184" type="curve"/>
			<point x="488" y="-96" type="line"/>
			<point x="476" y="-102"/>
			<point x="460" y="-108"/>
			<point x="442" y="-108" type="curve" smooth="yes"/>
			<point x="424" y="-108"/>
			<point x="404" y="-98"/>
			<point x="404" y="-76" type="curve" smooth="yes"/>
			<point x="404" y="-49"/>
			<point x="422" y="-14"/>
			<point x="482" y="0" type="curve"/>
			<point x="482" y="278" type="line" smooth="yes"/>
			<point x="482" y="442"/>
			<point x="404" y="512"/>
			<point x="274" y="512" type="curve" smooth="yes"/>
			<point x="196" y="512"/>
			<point x="124" y="488"/>
			<point x="54" y="446" type="curve"/>
			<point x="114" y="336" type="line"/>
			<point x="166" y="364"/>
			<point x="204" y="376"/>
			<point x="240" y="376" type="curve" smooth="yes"/>
			<point x="284" y="376"/>
			<point x="306" y="360"/>
			<point x="310" y="324" type="curve"/>
			<point x="118" y="304"/>
			<point x="38" y="246"/>
			<point x="38" y="142" type="curve" smooth="yes"/>
			<point x="38" y="60"/>
			<point x="94" y="-12"/>
			<point x="188" y="-12" type="curve" smooth="yes"/>
			<point x="242" y="-12"/>
			<point x="286" y="12"/>
			<point x="326" y="48" type="curve"/>
			<point x="330" y="48" type="line"/>
			<point x="344" y="-4" type="line"/>
			<point x="320" y="-18"/>
			<point x="280" y="-58"/>
			<point x="280" y="-116" type="curve" smooth="yes"/>
			<point x="280" y="-186"/>
			<point x="336" y="-220"/>
		</contour>
		<contour>
			<point x="248" y="120" type="curve" smooth="yes"/>
			<point x="218" y="120"/>
			<point x="202" y="133"/>
			<point x="202" y="156" type="curve" smooth="yes"/>
			<point x="202" y="184"/>
			<point x="228" y="210"/>
			<point x="310" y="222" type="curve"/>
			<point x="310" y="154" type="line"/>
			<point x="292" y="134"/>
			<point x="276" y="120"/>
		</contour>
	</outline>
	<anchor name="aboveLC" x="280" y="522"/>
</glyph>
<glyph name="eng" format="2">
	<unicode hex="014B"/>
	<advance width="582"/>
	<outline>
		<contour>
			<point x="334" y="-188" type="curve" smooth="yes"/>
			<point x="484" y="-188"/>
			<point x="528" y="-86"/>
			<point x="528" y="26" type="curve" smooth="yes"/>
			<point x="528" y="308" type="line" smooth="yes"/>
			<point x="528" y="432"/>
			<point x="482" y="512"/>
			<point x="372" y="512" type="curve" smooth="yes"/>
			<point x="304" y="512"/>
			<point x="254" y="478"/>
			<point x="214" y="440" type="curve"/>
			<point x="210" y="440" type="line"/>
			<point x="198" y="500" type="line"/>
			<point x="58" y="500" type="line"/>
			<point x="58" y="0" type="line"/>
			<point x="230" y="0" type="line"/>
			<point x="230" y="328" type="line"/>
			<point x="256" y="352"/>
			<point x="274" y="366"/>
			<point x="306" y="366" type="curve" smooth="yes"/>
			<point x="340" y="366"/>
			<point x="356" y="350"/>
			<point x="356" y="286" type="curve" smooth="yes"/>
			<point x="356" y="20" type="line" smooth="yes"/>
			<point x="356" y="-34"/>
			<point x="342" y="-54"/>
			<point x="306" y="-54" type="curve" smooth="yes"/>
			<point x="294" y="-54"/>
			<point x="284" y="-52"/>
			<point x="270" y="-48" type="curve"/>
			<point x="240" y="-174" type="line"/>
			<point x="262" y="-182"/>
			<point x="288" y="-188"/>
		</contour>
	</outline>
	<anchor name="aboveLC" x="320" y="522"/>
	<anchor name="belowLC" x="290" y="-182"/>
</glyph>
<glyph name="bstroke" format="2">
	<unicode hex="0180"/>
	<advance width="580"/>
	<outline>
		<contour>
			<point x="336" y="-12" type="curve" smooth="yes"/>
			<point x="442" y="-12"/>
			<point x="544" y="82"/>
			<point x="544" y="235" type="curve" smooth="yes"/>
			<point x="544" y="370"/>
			<point x="467" y="462"/>
			<point x="349" y="462" type="curve" smooth="yes"/>
			<point x="305" y="462"/>
			<point x="261" y="444"/>
			<point x="226" y="412" type="curve"/>
			<point x="230" y="484" type="line"/>
			<point x="230" y="696" type="line"/>
			<point x="58" y="696" type="line"/>
			<point x="58" y="0" type="line"/>
			<point x="192" y="0" type="line"/>
			<point x="206" y="54" type="line"/>
			<point x="210" y="54" type="line"/>
			<point x="248" y="10"/>
			<point x="292" y="-12"/>
		</contour>
		<contour>
			<point x="294" y="128" type="curve" smooth="yes"/>
			<point x="272" y="128"/>
			<point x="250" y="134"/>
			<point x="230" y="152" type="curve"/>
			<point x="230" y="286" type="line"/>
			<point x="252" y="312"/>
			<point x="272" y="322"/>
			<point x="298" y="322" type="curve" smooth="yes"/>
			<point x="344" y="322"/>
			<point x="368" y="292"/>
			<point x="368" y="232" type="curve" smooth="yes"/>
			<point x="368" y="160"/>
			<point x="334" y="128"/>
		</contour>
		<contour>
			<point x="-8" y="518" type="line"/>
			<point x="394" y="518" type="line"/>
			<point x="394" y="630" type="line"/>
			<point x="68" y="630" type="line"/>
			<point x="-8" y="624" type="line"/>
		</contour>
	</outline>
</glyph>
<glyph name="Dhook" format="2">
	<unicode hex="018A"/>
	<advance width="846"/>
	<outline>
		<contour>
			<point x="286" y="0" type="line"/>
			<point x="472" y="0" type="line" smooth="yes"/>
			<point x="664" y="0"/>
			<point x="802" y="98"/>
			<point x="802" y="334" type="curve" smooth="yes"/>
			<point x="802" y="564"/>
			<point x="668" y="662"/>
			<point x="430" y="662" type="curve" smooth="yes"/>
			<point x="137" y="662"/>
			<point x="34" y="552"/>
			<point x="34" y="400" type="curve" smooth="yes"/>
			<point x="34" y="302"/>
			<point x="84" y="246"/>
			<point x="164" y="210" type="curve"/>
			<point x="234" y="324" type="line"/>
			<point x="200" y="342"/>
			<point x="180" y="366"/>
			<point x="180" y="406" type="curve" smooth="yes"/>
			<point x="180" y="464"/>
			<point x="226" y="514"/>
			<point x="350" y="514" type="curve" smooth="yes"/>
			<point x="430" y="514" type="line" smooth="yes"/>
			<point x="554" y="514"/>
			<point x="626" y="478"/>
			<point x="626" y="334" type="curve" smooth="yes"/>
			<point x="626" y="176"/>
			<point x="552" y="138"/>
			<point x="478" y="138" type="curve" smooth="yes"/>
			<point x="458" y="138" type="line"/>
			<point x="458" y="570" type="line"/>
			<point x="286" y="570" type="line"/>
		</contour>
	</outline>
	<anchor name="aboveUC" x="500" y="672"/>
	<anchor name="belowLC" x="520" y="-22"/>
</glyph>
<glyph name="Schwa" format="2">
	<unicode hex="018F"/>
	<advance width="672"/>
	<outline>
		<contour>
			<point x="338" y="-12" type="curve" smooth="yes"/>
			<point x="510" y="-12"/>
			<point x="628" y="104"/>
			<point x="628" y="326" type="curve" smooth="yes"/>
			<point x="628" y="548"/>
			<point x="512" y="662"/>
			<point x="328" y="662" type="curve" smooth="yes"/>
			<point x="222" y="662"/>
			<point x="134" y="624"/>
			<point x="68" y="562" type="curve"/>
			<point x="152" y="458" type="line"/>
			<point x="198" y="498"/>
			<point x="254" y="522"/>
			<point x="316" y="522" type="curve" smooth="yes"/>
			<point x="410" y="522"/>
			<point x="458" y="464"/>
			<point x="458" y="326" type="curve" smooth="yes"/>
			<point x="458" y="182"/>
			<point x="410" y="128"/>
			<point x="340" y="128" type="curve" smooth="yes"/>
			<point x="271" y="128"/>
			<point x="222" y="162"/>
			<point x="220" y="258" type="curve"/>
			<point x="502" y="258" type="line"/>
			<point x="502" y="382" type="line"/>
			<point x="54" y="382" type="line"/>
			<point x="50" y="362"/>
			<point x="48" y="340"/>
			<point x="48" y="322" type="curve" smooth="yes"/>
			<point x="48" y="100"/>
			<point x="160" y="-12"/>
		</contour>
	</outline>
	<anchor name="aboveUC" x="350" y="672"/>
	<anchor name="belowLC" x="340" y="-22"/>
</glyph>
<glyph name="florin" format="2">
	<unicode hex="0192"/>
	<advance width="360"/>
	<outline>
		<contour>
			<point x="66" y="-188" type="curve" smooth="yes"/>
			<point x="216" y="-188"/>
			<point x="260" y="-86"/>
			<point x="260" y="26" type="curve" smooth="yes"/>
			<point x="260" y="512" type="line" smooth="yes"/>
			<point x="260" y="558"/>
			<point x="280" y="574"/>
			<point x="312" y="574" type="curve" smooth="yes"/>
			<point x="328" y="574"/>
			<point x="344" y="572"/>
			<point x="360" y="568" type="curve"/>
			<point x="392" y="690" type="line"/>
			<point x="370" y="698"/>
			<point x="332" y="708"/>
			<point x="286" y="708" type="curve" smooth="yes"/>
			<point x="138" y="708"/>
			<point x="88" y="613"/>
			<point x="88" y="506" type="curve" smooth="yes"/>
			<point x="88" y="20" type="line" smooth="yes"/>
			<point x="88" y="-34"/>
			<point x="74" y="-54"/>
			<point x="38" y="-54" type="curve" smooth="yes"/>
			<point x="26" y="-54"/>
			<point x="16" y="-52"/>
			<point x="2" y="-48" type="curve"/>
			<point x="-28" y="-174" type="line"/>
			<point x="-6" y="-182"/>
			<point x="20" y="-188"/>
		</contour>
		<contour>
			<point x="14" y="366" type="line"/>
			<point x="344" y="366" type="line"/>
			<point x="344" y="500" type="line"/>
			<point x="90" y="500" type="line"/>
			<point x="14" y="494" type="line"/>
		</contour>
	</outline>
	<anchor name="aboveUC" x="250" y="722"/>
	<anchor name="belowLC" x="120" y="-182"/>
</glyph>
<glyph name="Uhorn" format="2">
	<unicode hex="01AF"/>
	<advance width="692"/>
	<outline>
		<contour>
			<point x="604" y="589" type="line"/>
			<point x="694" y="605"/>
			<point x="744" y="648"/>
			<point x="744" y="732" type="curve" smooth="yes"/>
			<point x="744" y="776"/>
			<point x="728" y="816"/>
			<point x="712" y="838" type="curve"/>
			<point x="586" y="788" type="line"/>
			<point x="593" y="773"/>
			<point x="602" y="748"/>
			<point x="602" y="720" type="curve" smooth="yes"/>
			<point x="602" y="657"/>
			<point x="556" y="650"/>
			<point x="522" y="650" type="curve"/>
		</contour>
		<component base="U"/>
	</outline>
	<anchor name="aboveUC" x="336" y="672"/>
	<anchor name="belowLC" x="336" y="-22"/>
</glyph>
<glyph name="Nlong" format="2">
	<unicode hex="0220"/>
	<advance width="698"/>
	<outline>
		<contour>
			<point x="458" y="-176" type="line"/>
			<point x="630" y="-176" type="line"/>
			<point x="630" y="350" type="line" smooth="yes"/>
			<point x="630" y="568"/>
			<point x="544" y="662"/>
			<point x="412" y="662" type="curve" smooth="yes"/>
			<point x="346" y="662"/>
			<point x="288" y="638"/>
			<point x="238" y="584" type="curve"/>
			<point x="238" y="650" type="line"/>
			<point x="72" y="650" type="line"/>
			<point x="72" y="0" type="line"/>
			<point x="244" y="0" type="line"/>
			<point x="244" y="438" type="line"/>
			<point x="274" y="491"/>
			<point x="322" y="514"/>
			<point x="358" y="514" type="curve" smooth="yes"/>
			<point x="422" y="514"/>
			<point x="458" y="462"/>
			<point x="458" y="330" type="curve" smooth="yes"/>
		</contour>
	</outline>
	<anchor name="aboveUC" x="370" y="672"/>
	<anchor name="belowLC" x="330" y="-182"/>
</glyph>
<glyph name="schwahookrhotic" format="2">
	<unicode hex="025A"/>
	<advance width="750"/>
	<outline>
		<contour>
			<point x="264" y="-12" type="curve" smooth="yes"/>
			<point x="396" y="-12"/>
			<point x="494" y="100"/>
			<point x="494" y="240" type="curve" smooth="yes"/>
			<point x="494" y="396"/>
			<point x="410" y="512"/>
			<point x="249" y="512" type="curve" smooth="yes"/>
			<point x="197" y="512"/>
			<point x="126" y="500"/>
			<point x="68" y="462" type="curve"/>
			<point x="124" y="352" type="line"/>
			<point x="158" y="372"/>
			<point x="192" y="382"/>
			<point x="225" y="382" type="curve" smooth="yes"/>
			<point x="304" y="382"/>
			<point x="336" y="337"/>
			<point x="336" y="223" type="curve" smooth="yes"/>
			<point x="336" y="158"/>
			<point x="302" y="116"/>
			<point x="264" y="116" type="curve" smooth="yes"/>
			<point x="224" y="116"/>
			<point x="196" y="134"/>
			<point x="188" y="166" type="curve"/>
			<point x="550" y="322" type="line"/>
			<point x="550" y="316" type="line" smooth="yes"/>
			<point x="550" y="228"/>
			<point x="606" y="194"/>
			<point x="666" y="194" type="curve" smooth="yes"/>
			<point x="710" y="194"/>
			<point x="738" y="206"/>
			<point x="760" y="220" type="curve"/>
			<point x="726" y="300" type="line"/>
			<point x="716" y="294"/>
			<point x="704" y="290"/>
			<point x="686" y="290" type="curve" smooth="yes"/>
			<point x="654" y="290"/>
			<point x="634" y="316"/>
			<point x="634" y="388" type="curve" smooth="yes"/>
			<point x="634" y="408"/>
			<point x="634" y="428"/>
			<point x="636" y="456" type="curve"/>
			<point x="624" y="466" type="line"/>
			<point x="36" y="224" type="line"/>
			<point x="42" y="102"/>
			<point x="106" y="-12"/>
		</contour>
	</outline>
	<anchor name="aboveLC" x="260" y="522"/>
	<anchor name="belowLC" x="270" y="-22"/>
</glyph>
<glyph name="hturned" format="2">
	<unicode hex="0265"/>
	<advance width="582"/>
	<outline>
		<contour>
			<point x="352" y="-176" type="line"/>
			<point x="524" y="-176" type="line"/>
			<point x="524" y="500" type="line"/>
			<point x="352" y="500" type="line"/>
			<point x="352" y="178" type="line"/>
			<point x="330" y="146"/>
			<point x="308" y="134"/>
			<point x="276" y="134" type="curve" smooth="yes"/>
			<point x="242" y="134"/>
			<point x="226" y="150"/>
			<point x="226" y="214" type="curve" smooth="yes"/>
			<point x="226" y="500" type="line"/>
			<point x="54" y="500" type="line"/>
			<point x="54" y="192" type="line" smooth="yes"/>
			<point x="54" y="68"/>
			<point x="100" y="-12"/>
			<point x="210" y="-12" type="curve" smooth="yes"/>
			<point x="278" y="-12"/>
			<point x="326" y="20"/>
			<point x="360" y="56" type="curve"/>
			<point x="352" y="-34" type="line"/>
		</contour>
	</outline>
	<anchor name="aboveLC" x="290" y="522"/>
	<anchor name="belowLC" x="280" y="-182"/>
</glyph>
<glyph name="nhookleft" format="2">
	<unicode hex="0272"/>
	<advance width="582"/>
	<outline>
		<contour>
			<point x="46" y="-188" type="curve" smooth="yes"/>
			<point x="188" y="-188"/>
			<point x="230" y="-91"/>
			<point x="230" y="16" type="curve" smooth="yes"/>
			<point x="230" y="328" type="line"/>
			<point x="256" y="352"/>
			<point x="274" y="366"/>
			<point x="306" y="366" type="curve" smooth="yes"/>
			<point x="340" y="366"/>
			<point x="356" y="350"/>
			<point x="356" y="286" type="curve" smooth="yes"/>
			<point x="356" y="0" type="line"/>
			<point x="528" y="0" type="line"/>
			<point x="528" y="308" type="line" smooth="yes"/>
			<point x="528" y="432"/>
			<point x="482" y="512"/>
			<point x="372" y="512" type="curve" smooth="yes"/>
			<point x="304" y="512"/>
			<point x="254" y="478"/>
			<point x="214" y="440" type="curve"/>
			<point x="210" y="440" type="line"/>
			<point x="198" y="500" type="line"/>
			<point x="58" y="500" type="line"/>
			<point x="58" y="10" type="line" smooth="yes"/>
			<point x="58" y="-37"/>
			<point x="47" y="-54"/>
			<point x="18" y="-54" type="curve" smooth="yes"/>
			<point x="9" y="-54"/>
			<point x="2" y="-52"/>
			<point x="-8" y="-48" type="curve"/>
			<point x="-38" y="-174" type="line"/>
			<point x="-18" y="-182"/>
			<point x="5" y="-188"/>
		</contour>
	</outline>
	<anchor name="aboveLC" x="320" y="522"/>
	<anchor name="belowLC" x="290" y="-182"/>
</glyph>
<glyph name="rtail" format="2">
	<unicode hex="027D"/>
	<advance width="418"/>
	<outline>
		<contour>
			<point x="242" y="-188" type="curve" smooth="yes"/>
			<point x="283" y="-188"/>
			<point x="306" y="-182"/>
			<point x="326" y="-174" type="curve"/>
			<point x="296" y="-48" type="line"/>
			<point x="286" y="-52"/>
			<point x="279" y="-54"/>
			<point x="270" y="-54" type="curve" smooth="yes"/>
			<point x="241" y="-54"/>
			<point x="230" y="-37"/>
			<point x="230" y="10" type="curve" smooth="yes"/>
			<point x="230" y="278" type="line"/>
			<point x="254" y="340"/>
			<point x="298" y="362"/>
			<point x="334" y="362" type="curve" smooth="yes"/>
			<point x="356" y="362"/>
			<point x="372" y="358"/>
			<point x="390" y="354" type="curve"/>
			<point x="418" y="502" type="line"/>
			<point x="404" y="508"/>
			<point x="387" y="512"/>
			<point x="356" y="512" type="curve" smooth="yes"/>
			<point x="307" y="512"/>
			<point x="251" y="482"/>
			<point x="214" y="414" type="curve"/>
			<point x="210" y="414" type="line"/>
			<point x="198" y="500" type="line"/>
			<point x="58" y="500" type="line"/>
			<point x="58" y="16" type="line" smooth="yes"/>
			<point x="58" y="-91"/>
			<point x="100" y="-188"/>
		</contour>
	</outline>
	<anchor name="aboveLC" x="260" y="522"/>
	<anchor name="belowLC" x="180" y="-182"/>
</glyph>
<glyph name="rfishhook" format="2">
	<unicode hex="027E"/>
	<advance width="394"/>
	<outline>
		<contour>
			<point x="54" y="0" type="line"/>
			<point x="226" y="0" type="line"/>
			<point x="226" y="262" type="line" smooth="yes"/>
			<point x="226" y="341"/>
			<point x="270" y="364"/>
			<point x="298" y="364" type="curve" smooth="yes"/>
			<point x="328" y="364"/>
			<point x="338" y="362"/>
			<point x="368" y="354" type="curve"/>
			<point x="394" y="498" type="line"/>
			<point x="368" y="506"/>
			<point x="326" y="512"/>
			<point x="272" y="512" type="curve" smooth="yes"/>
			<point x="113" y="512"/>
			<point x="54" y="412"/>
			<point x="54" y="300" type="curve" smooth="yes"/>
		</contour>
	</outline>
	<anchor name="aboveLC" x="250" y="522"/>
	<anchor name="belowLC" x="140" y="-22"/>
	<anchor name="center" x="150" y="210"/>
</glyph>
<glyph name="rsmall" format="2">
	<unicode hex="0280"/>
	<advance width="546"/>
	<outline>
		<contour>
			<point x="58" y="0" type="line"/>
			<point x="230" y="0" type="line"/>
			<point x="230" y="152" type="line"/>
			<point x="272" y="152" type="line" smooth="yes"/>
			<point x="368" y="152"/>
			<point x="488" y="198"/>
			<point x="488" y="328" type="curve" smooth="yes"/>
			<point x="488" y="458"/>
			<point x="392" y="500"/>
			<point x="275" y="500" type="curve" smooth="yes"/>
			<point x="58" y="500" type="line"/>
		</contour>
		<contour>
			<point x="230" y="264" type="line"/>
			<point x="230" y="374" type="line"/>
			<point x="256" y="374" type="line" smooth="yes"/>
			<point x="300" y="374"/>
			<point x="320" y="356"/>
			<point x="320" y="322" type="curve" smooth="yes"/>
			<point x="320" y="290"/>
			<point x="300" y="264"/>
			<point x="256" y="264" type="curve" smooth="yes"/>
		</contour>
		<contour>
			<point x="348" y="0" type="line"/>
			<point x="538" y="0" type="line"/>
			<point x="385" y="242" type="line"/>
			<point x="244" y="196" type="line"/>
		</contour>
	</outline>
	<anchor name="aboveLC" x="270" y="522"/>
	<anchor name="belowLC" x="290" y="-22"/>
</glyph>
<glyph name="rsmallinverted" format="2">
	<unicode hex="0281"/>
	<advance width="546"/>
	<outline>
		<contour>
			<point x="58" y="0" type="line"/>
			<point x="275" y="0" type="line" smooth="yes"/>
			<point x="392" y="0"/>
			<point x="488" y="42"/>
			<point x="488" y="172" type="curve" smooth="yes"/>
			<point x="488" y="302"/>
			<point x="368" y="348"/>
			<point x="272" y="348" type="curve" smooth="yes"/>
			<point x="230" y="348" type="line"/>
			<point x="230" y="500" type="line"/>
			<point x="58" y="500" type="line"/>
		</contour>
		<contour>
			<point x="230" y="126" type="line"/>
			<point x="230" y="236" type="line"/>
			<point x="256" y="236" type="line" smooth="yes"/>
			<point x="300" y="236"/>
			<point x="320" y="210"/>
			<point x="320" y="178" type="curve" smooth="yes"/>
			<point x="320" y="144"/>
			<point x="300" y="126"/>
			<point x="256" y="126" type="curve" smooth="yes"/>
		</contour>
		<contour>
			<point x="385" y="258" type="line"/>
			<point x="538" y="500" type="line"/>
			<point x="348" y="500" type="line"/>
			<point x="244" y="304" type="line"/>
		</contour>
	</outline>
	<anchor name="aboveLC" x="300" y="522"/>
	<anchor name="belowLC" x="270" y="-22"/>
</glyph>
<glyph name="dzcurl" format="2">
	<unicode hex="02A5"/>
	<advance width="1012"/>
	<outline>
		<contour>
			<point x="230" y="-12" type="curve" smooth="yes"/>
			<point x="271" y="-12"/>
			<point x="313" y="13"/>
			<point x="346" y="46" type="curve"/>
			<point x="350" y="46" type="line"/>
			<point x="362" y="0" type="line"/>
			<point x="502" y="0" type="line"/>
			<point x="502" y="696" type="line"/>
			<point x="330" y="696" type="line"/>
			<point x="330" y="534" type="line"/>
			<point x="336" y="462" type="line"/>
			<point x="307" y="491"/>
			<point x="279" y="512"/>
			<point x="230" y="512" type="curve" smooth="yes"/>
			<point x="132" y="512"/>
			<point x="36" y="414"/>
			<point x="36" y="250" type="curve" smooth="yes"/>
			<point x="36" y="88"/>
			<point x="112" y="-12"/>
		</contour>
		<contour>
			<point x="276" y="128" type="curve" smooth="yes"/>
			<point x="236" y="128"/>
			<point x="212" y="162"/>
			<point x="212" y="252" type="curve" smooth="yes"/>
			<point x="212" y="340"/>
			<point x="240" y="372"/>
			<point x="272" y="372" type="curve" smooth="yes"/>
			<point x="291" y="372"/>
			<point x="312" y="365"/>
			<point x="330" y="348" type="curve"/>
			<point x="330" y="164" type="line"/>
			<point x="313" y="137"/>
			<point x="298" y="128"/>
		</contour>
		<contour>
			<point x="802" y="-82" type="line"/>
			<point x="838" y="107"/>
			<point x="865" y="182"/>
			<point x="898" y="182" type="curve" smooth="yes"/>
			<point x="910" y="182"/>
			<point x="918" y="176"/>
			<point x="918" y="160" type="curve" smooth="yes"/>
			<point x="918" y="141"/>
			<point x="902" y="124"/>
			<point x="867" y="124" type="curve" smooth="yes"/>
			<point x="822" y="124"/>
			<point x="783" y="127"/>
			<point x="738" y="134" type="curve"/>
			<point x="870" y="408" type="line"/>
			<point x="870" y="500" type="line"/>
			<point x="490" y="500" type="line"/>
			<point x="490" y="366" type="line"/>
			<point x="678" y="366" type="line"/>
			<point x="546" y="92" type="line"/>
			<point x="546" y="0" type="line"/>
			<point x="634" y="-6"/>
			<point x="723" y="-12"/>
			<point x="810" y="-12" type="curve" smooth="yes"/>
			<point x="958" y="-12"/>
			<point x="1020" y="66"/>
			<point x="1020" y="160" type="curve" smooth="yes"/>
			<point x="1020" y="228"/>
			<point x="977" y="270"/>
			<point x="910" y="270" type="curve" smooth="yes"/>
			<point x="794" y="270"/>
			<point x="750" y="120"/>
			<point x="712" y="-66" type="curve"/>
		</contour>
	</outline>
	<anchor name="aboveUC" x="420" y="722"/>
	<anchor name="belowLC" x="530" y="-22"/>
</glyph>
<glyph name="rturned.sups" format="2">
	<unicode hex="02B4"/>
	<advance width="284"/>
	<outline>
		<contour>
			<point x="44" y="360" type="curve" smooth="yes"/>
			<point x="76" y="360"/>
			<point x="112" y="380"/>
			<point x="138" y="426" type="curve"/>
			<point x="140" y="426" type="line"/>
			<point x="149" y="368" type="line"/>
			<point x="246" y="368" type="line"/>
			<point x="246" y="700" type="line"/>
			<point x="126" y="700" type="line"/>
			<point x="126" y="518" type="line"/>
			<point x="110" y="478"/>
			<point x="82" y="464"/>
			<point x="58" y="464" type="curve" smooth="yes"/>
			<point x="44" y="464"/>
			<point x="30" y="468"/>
			<point x="20" y="470" type="curve"/>
			<point x="0" y="368" type="line"/>
			<point x="9" y="364"/>
			<point x="22" y="360"/>
		</contour>
	</outline>
</glyph>
<glyph name="w.sups" format="2">
	<unicode hex="02B7"/>
	<advance width="537"/>
	<outline>
		<contour>
			<point x="96" y="368" type="line"/>
			<point x="232" y="368" type="line"/>
			<point x="254" y="480" type="line"/>
			<point x="268" y="570" type="line"/>
			<point x="270" y="570" type="line"/>
			<point x="284" y="480" type="line"/>
			<point x="308" y="368" type="line"/>
			<point x="446" y="368" type="line"/>
			<point x="521" y="700" type="line"/>
			<point x="412" y="700" type="line"/>
			<point x="388" y="564" type="line"/>
			<point x="375" y="462" type="line"/>
			<point x="372" y="462" type="line"/>
			<point x="354" y="564" type="line"/>
			<point x="318" y="700" type="line"/>
			<point x="224" y="700" type="line"/>
			<point x="190" y="564" type="line"/>
			<point x="173" y="462" type="line"/>
			<point x="170" y="462" type="line"/>
			<point x="158" y="564" type="line"/>
			<point x="134" y="700" type="line"/>
			<point x="16" y="700" type="line"/>
		</contour>
	</outline>
	<anchor name="belowLC" x="270" y="-22"/>
</glyph>
<glyph name="l.sups" format="2">
	<unicode hex="02E1"/>
	<advance width="202"/>
	<outline>
		<contour>
			<point x="144" y="360" type="curve" smooth="yes"/>
			<point x="172" y="360"/>
			<point x="188" y="364"/>
			<point x="202" y="370" type="curve"/>
			<point x="188" y="456" type="line"/>
			<point x="182" y="454"/>
			<point x="180" y="454"/>
			<point x="176" y="454" type="curve" smooth="yes"/>
			<point x="166" y="454"/>
			<point x="158" y="462"/>
			<point x="158" y="484" type="curve" smooth="yes"/>
			<point x="158" y="828" type="line"/>
			<point x="38" y="828" type="line"/>
			<point x="38" y="488" type="line" smooth="yes"/>
			<point x="38" y="412"/>
			<point x="64" y="360"/>
		</contour>
	</outline>
</glyph>
<glyph name="x.sups" format="2">
	<unicode hex="02E3"/>
	<advance width="364"/>
	<outline>
		<contour>
			<point x="8" y="368" type="line"/>
			<point x="132" y="368" type="line"/>
			<point x="150" y="412" type="line"/>
			<point x="172" y="462" type="line"/>
			<point x="176" y="462" type="line"/>
			<point x="206" y="412" type="line"/>
			<point x="230" y="368" type="line"/>
			<point x="356" y="368" type="line"/>
			<point x="256" y="526" type="line"/>
			<point x="352" y="700" type="line"/>
			<point x="228" y="700" type="line"/>
			<point x="212" y="654" type="line"/>
			<point x="194" y="604" type="line"/>
			<point x="190" y="604" type="line"/>
			<point x="164" y="654" type="line"/>
			<point x="142" y="700" type="line"/>
			<point x="14" y="700" type="line"/>
			<point x="110" y="540" type="line"/>
		</contour>
	</outline>
</glyph>
<glyph name="macroncmb" format="2">
	<unicode hex="0304"/>
	<outline>
		<contour>
			<point x="-154" y="588" type="line"/>
			<point x="154" y="588" type="line"/>
			<point x="154" y="696" type="line"/>
			<point x="-154" y="696" type="line"/>
		</contour>
	</outline>
	<anchor name="_aboveLC" x="0" y="522"/>
	<anchor name="aboveLC" x="0" y="702"/>
</glyph>
<glyph name="breveinvertedcmb" format="2">
	<unicode hex="0311"/>
	<outline>
		<contour>
			<point x="-78" y="564" type="line"/>
			<point x="-72" y="604"/>
			<point x="-48" y="634"/>
			<point x="0" y="634" type="curve" smooth="yes"/>
			<point x="48" y="634"/>
			<point x="72" y="604"/>
			<point x="78" y="564" type="curve"/>
			<point x="174" y="580" type="line"/>
			<point x="172" y="674"/>
			<point x="117" y="740"/>
			<point x="0" y="740" type="curve" smooth="yes"/>
			<point x="-118" y="740"/>
			<point x="-172" y="674"/>
			<point x="-174" y="580" type="curve"/>
		</contour>
	</outline>
	<anchor name="_aboveLC" x="0" y="522"/>
</glyph>
<glyph name="lefttackbelowcmb" format="2">
	<unicode hex="0318"/>
	<outline>
		<contour>
			<point x="16" y="-260" type="line"/>
			<point x="104" y="-260" type="line"/>
			<point x="104" y="-52" type="line"/>
			<point x="16" y="-52" type="line"/>
			<point x="16" y="-116" type="line"/>
			<point x="-92" y="-116" type="line"/>
			<point x="-92" y="-196" type="line"/>
			<point x="16" y="-196" type="line"/>
		</contour>
	</outline>
	<anchor name="_belowLC" x="0" y="-22"/>
</glyph>
<glyph name="commabelowcmb" format="2">
	<unicode hex="0326"/>
	<outline>
		<contour>
			<point x="-108" y="-244" type="line"/>
			<point x="24" y="-240"/>
			<point x="102" y="-208"/>
			<point x="102" y="-136" type="curve" smooth="yes"/>
			<point x="102" y="-86"/>
			<point x="66" y="-58"/>
			<point x="-48" y="-50" type="curve"/>
			<point x="-80" y="-110" type="line"/>
			<point x="-36" y="-114"/>
			<point x="-20" y="-126"/>
			<point x="-20" y="-142" type="curve" smooth="yes"/>
			<point x="-20" y="-164"/>
			<point x="-44" y="-174"/>
			<point x="-120" y="-178" type="curve"/>
		</contour>
	</outline>
	<anchor name="_belowLC" x="0" y="-22"/>
</glyph>
<glyph name="breveinverteddoublecmb" format="2">
	<unicode hex="0361"/>
	<outline>
		<contour>
			<point x="-414" y="530" type="line"/>
			<point x="-284" y="602"/>
			<point x="-118" y="622"/>
			<point x="0" y="622" type="curve" smooth="yes"/>
			<point x="118" y="622"/>
			<point x="284" y="602"/>
			<point x="414" y="530" type="curve"/>
			<point x="458" y="608" type="line"/>
			<point x="320" y="692"/>
			<point x="156" y="730"/>
			<point x="0" y="730" type="curve" smooth="yes"/>
			<point x="-156" y="730"/>
			<point x="-320" y="692"/>
			<point x="-458" y="608" type="curve"/>
		</contour>
	</outline>
</glyph>
<glyph name="Psi" format="2">
	<unicode hex="03A8"/>
	<advance width="772"/>
	<outline>
		<contour>
			<point x="356" y="208" type="curve" smooth="yes"/>
			<point x="416" y="208" type="line" smooth="yes"/>
			<point x="606" y="208"/>
			<point x="724" y="288"/>
			<point x="724" y="490" type="curve" smooth="yes"/>
			<point x="724" y="650" type="line"/>
			<point x="556" y="650" type="line"/>
			<point x="556" y="500" type="line" smooth="yes"/>
			<point x="556" y="372"/>
			<point x="510" y="342"/>
			<point x="426" y="342" type="curve" smooth="yes"/>
			<point x="346" y="342" type="line" smooth="yes"/>
			<point x="262" y="342"/>
			<point x="216" y="372"/>
			<point x="216" y="500" type="curve" smooth="yes"/>
			<point x="216" y="650" type="line"/>
			<point x="48" y="650" type="line"/>
			<point x="48" y="490" type="line" smooth="yes"/>
			<point x="48" y="288"/>
			<point x="166" y="208"/>
		</contour>
		<contour>
			<point x="306" y="0" type="line"/>
			<point x="466" y="0" type="line"/>
			<point x="466" y="650" type="line"/>
			<point x="306" y="650" type="line"/>
		</contour>
	</outline>
</glyph>
<glyph name="gamma" format="2">
	<unicode hex="03B3"/>
	<advance width="552"/>
	<outline>
		<contour>
			<point x="180" y="-176" type="curve"/>
			<point x="358" y="-176" type="line"/>
			<point x="358" y="-120"/>
			<point x="356" y="-48"/>
			<point x="344" y="16" type="curve"/>
			<point x="476" y="218"/>
			<point x="506" y="330"/>
			<point x="536" y="500" type="curve"/>
			<point x="366" y="500" type="line"/>
			<point x="360" y="386"/>
			<point x="344" y="288"/>
			<point x="298" y="193" type="curve"/>
			<point x="294" y="193" type="line"/>
			<point x="256" y="330"/>
			<point x="210" y="452"/>
			<point x="172" y="512" type="curve"/>
			<point x="-4" y="476" type="line"/>
			<point x="106" y="318"/>
			<point x="188" y="78"/>
			<point x="188" y="-34" type="curve" smooth="yes"/>
			<point x="188" y="-108"/>
			<point x="186" y="-136"/>
		</contour>
	</outline>
	<anchor name="aboveLC" x="280" y="522"/>
	<anchor name="belowLC" x="270" y="-182"/>
</glyph>
<glyph name="delta" format="2">
	<unicode hex="03B4"/>
	<advance width="554"/>
	<outline>
		<contour>
			<point x="276" y="-12" type="curve" smooth="yes"/>
			<point x="426" y="-12"/>
			<point x="518" y="84"/>
			<point x="518" y="224" type="curve" smooth="yes"/>
			<point x="518" y="333"/>
			<point x="472" y="406"/>
			<point x="382" y="460" type="curve" smooth="yes"/>
			<point x="302" y="508"/>
			<point x="240" y="538"/>
			<point x="240" y="564" type="curve" smooth="yes"/>
			<point x="240" y="576"/>
			<point x="250" y="582"/>
			<point x="272" y="582" type="curve" smooth="yes"/>
			<point x="325" y="582"/>
			<point x="394" y="564"/>
			<point x="458" y="543" type="curve"/>
			<point x="496" y="669" type="line"/>
			<point x="432" y="690"/>
			<point x="348" y="708"/>
			<point x="272" y="708" type="curve" smooth="yes"/>
			<point x="143" y="708"/>
			<point x="82" y="650"/>
			<point x="82" y="582" type="curve" smooth="yes"/>
			<point x="82" y="484"/>
			<point x="158" y="426"/>
			<point x="235" y="388" type="curve" smooth="yes"/>
			<point x="300" y="356"/>
			<point x="352" y="300"/>
			<point x="352" y="226" type="curve" smooth="yes"/>
			<point x="352" y="150"/>
			<point x="318" y="126"/>
			<point x="280" y="126" type="curve" smooth="yes"/>
			<point x="234" y="126"/>
			<point x="198" y="157"/>
			<point x="198" y="226" type="curve" smooth="yes"/>
			<point x="198" y="298"/>
			<point x="248" y="352"/>
			<point x="299" y="352" type="curve"/>
			<point x="222" y="444" type="line"/>
			<point x="140" y="444"/>
			<point x="36" y="344"/>
			<point x="36" y="224" type="curve" smooth="yes"/>
			<point x="36" y="74"/>
			<point x="142" y="-12"/>
		</contour>
	</outline>
	<anchor name="aboveUC" x="300" y="722"/>
	<anchor name="belowLC" x="280" y="-22"/>
</glyph>
<glyph name="theta" format="2">
	<unicode hex="03B8"/>
	<advance width="560"/>
	<outline>
		<contour>
			<point x="280" y="-12" type="curve" smooth="yes"/>
			<point x="420" y="-12"/>
			<point x="516" y="110"/>
			<point x="516" y="350" type="curve" smooth="yes"/>
			<point x="516" y="595"/>
			<point x="420" y="708"/>
			<point x="280" y="708" type="curve" smooth="yes"/>
			<point x="140" y="708"/>
			<point x="44" y="596"/>
			<point x="44" y="350" type="curve" smooth="yes"/>
			<point x="44" y="110"/>
			<point x="140" y="-12"/>
		</contour>
		<contour>
			<point x="280" y="126" type="curve" smooth="yes"/>
			<point x="242" y="126"/>
			<point x="210" y="164"/>
			<point x="210" y="350" type="curve" smooth="yes"/>
			<point x="210" y="544"/>
			<point x="242" y="570"/>
			<point x="280" y="570" type="curve" smooth="yes"/>
			<point x="318" y="570"/>
			<point x="350" y="544"/>
			<point x="350" y="350" type="curve" smooth="yes"/>
			<point x="350" y="164"/>
			<point x="318" y="126"/>
		</contour>
		<contour>
			<point x="136" y="286" type="line"/>
			<point x="424" y="286" type="line"/>
			<point x="424" y="414" type="line"/>
			<point x="136" y="414" type="line"/>
		</contour>
	</outline>
	<anchor name="aboveUC" x="280" y="722"/>
	<anchor name="belowLC" x="280" y="-22"/>
</glyph>
<glyph name="kappa" format="2">
	<unicode hex="03BA"/>
	<advance width="566"/>
	<outline>
		<contour>
			<point x="58" y="0" type="line"/>
			<point x="220" y="0" type="line"/>
			<point x="220" y="31" type="line" smooth="yes"/>
			<point x="220" y="110"/>
			<point x="235" y="157"/>
			<point x="274" y="194" type="curve" smooth="yes"/>
			<point x="391" y="306"/>
			<point x="440" y="338"/>
			<point x="518" y="352" type="curve"/>
			<point x="505" y="512" type="line"/>
			<point x="384" y="500"/>
			<point x="302" y="412"/>
			<point x="230" y="304" type="curve"/>
			<point x="226" y="304" type="line"/>
			<point x="226" y="374" type="line" smooth="yes"/>
			<point x="226" y="422"/>
			<point x="224" y="466"/>
			<point x="216" y="500" type="curve"/>
			<point x="46" y="500" type="line"/>
			<point x="56" y="444"/>
			<point x="58" y="380"/>
			<point x="58" y="340" type="curve" smooth="yes"/>
		</contour>
		<contour>
			<point x="378" y="-12" type="curve"/>
			<point x="572" y="0" type="line"/>
			<point x="506" y="74"/>
			<point x="422" y="202"/>
			<point x="372" y="302" type="curve"/>
			<point x="263" y="190" type="line"/>
			<point x="308" y="96"/>
			<point x="344" y="34"/>
		</contour>
	</outline>
	<anchor name="aboveLC" x="290" y="522"/>
	<anchor name="belowLC" x="300" y="-22"/>
</glyph>
<glyph name="sigma.end" format="2">
	<unicode hex="03C2"/>
	<advance width="452"/>
	<outline>
		<contour>
			<point x="361" y="-188" type="line"/>
			<point x="406" y="-120"/>
			<point x="424" y="-48"/>
			<point x="424" y="-12" type="curve" smooth="yes"/>
			<point x="424" y="78"/>
			<point x="392" y="110"/>
			<point x="294" y="146" type="curve" smooth="yes"/>
			<point x="234" y="168"/>
			<point x="208" y="194"/>
			<point x="208" y="258" type="curve" smooth="yes"/>
			<point x="208" y="328"/>
			<point x="241" y="374"/>
			<point x="302" y="374" type="curve" smooth="yes"/>
			<point x="320" y="374"/>
			<point x="338" y="368"/>
			<point x="360" y="350" type="curve"/>
			<point x="440" y="460" type="line"/>
			<point x="404" y="492"/>
			<point x="351" y="512"/>
			<point x="290" y="512" type="curve" smooth="yes"/>
			<point x="151" y="512"/>
			<point x="32" y="418"/>
			<point x="32" y="258" type="curve" smooth="yes"/>
			<point x="32" y="96"/>
			<point x="132" y="40"/>
			<point x="224" y="8" type="curve" smooth="yes"/>
			<point x="259" y="-4"/>
			<point x="274" y="-24"/>
			<point x="274" y="-58" type="curve" smooth="yes"/>
			<point x="274" y="-82"/>
			<point x="252" y="-110"/>
			<point x="226" y="-146" type="curve"/>
		</contour>
	</outline>
	<anchor name="aboveLC" x="270" y="522"/>
	<anchor name="belowLC" x="220" y="-182"/>
</glyph>
<glyph name="sigma" format="2">
	<unicode hex="03C3"/>
	<advance width="584"/>
	<outline>
		<contour>
			<point x="274" y="-12" type="curve" smooth="yes"/>
			<point x="412" y="-12"/>
			<point x="507" y="76"/>
			<point x="507" y="216" type="curve" smooth="yes"/>
			<point x="507" y="285"/>
			<point x="482" y="342"/>
			<point x="436" y="368" type="curve"/>
			<point x="436" y="372" type="line"/>
			<point x="487" y="370"/>
			<point x="518" y="366"/>
			<point x="572" y="360" type="curve"/>
			<point x="572" y="500" type="line"/>
			<point x="282" y="500" type="line" smooth="yes"/>
			<point x="154" y="500"/>
			<point x="32" y="416"/>
			<point x="32" y="244" type="curve" smooth="yes"/>
			<point x="32" y="78"/>
			<point x="140" y="-12"/>
		</contour>
		<contour>
			<point x="276" y="126" type="curve" smooth="yes"/>
			<point x="232" y="126"/>
			<point x="208" y="168"/>
			<point x="208" y="244" type="curve" smooth="yes"/>
			<point x="208" y="330"/>
			<point x="232" y="362"/>
			<point x="276" y="362" type="curve" smooth="yes"/>
			<point x="320" y="362"/>
			<point x="344" y="305"/>
			<point x="344" y="234" type="curve" smooth="yes"/>
			<point x="344" y="164"/>
			<point x="320" y="126"/>
		</contour>
	</outline>
	<anchor name="aboveLC" x="300" y="522"/>
	<anchor name="belowLC" x="280" y="-22"/>
</glyph>
<glyph name="kai" format="2">
	<unicode hex="03D7"/>
	<advance width="574"/>
	<outline>
		<contour>
			<point x="58" y="0" type="line"/>
			<point x="220" y="0" type="line"/>
			<point x="220" y="31" type="line" smooth="yes"/>
			<point x="220" y="110"/>
			<point x="235" y="157"/>
			<point x="274" y="194" type="curve" smooth="yes"/>
			<point x="391" y="306"/>
			<point x="440" y="338"/>
			<point x="518" y="352" type="curve"/>
			<point x="505" y="512" type="line"/>
			<point x="384" y="500"/>
			<point x="302" y="412"/>
			<point x="230" y="304" type="curve"/>
			<point x="226" y="304" type="line"/>
			<point x="226" y="374" type="line" smooth="yes"/>
			<point x="226" y="422"/>
			<point x="224" y="466"/>
			<point x="216" y="500" type="curve"/>
			<point x="46" y="500" type="line"/>
			<point x="56" y="444"/>
			<point x="58" y="380"/>
			<point x="58" y="340" type="curve" smooth="yes"/>
		</contour>
		<contour>
			<point x="226" y="-188" type="curve" smooth="yes"/>
			<point x="414" y="-188"/>
			<point x="548" y="-104"/>
			<point x="548" y="84" type="curve" smooth="yes"/>
			<point x="548" y="214"/>
			<point x="458" y="290"/>
			<point x="306" y="290" type="curve"/>
			<point x="264" y="190" type="line"/>
			<point x="332" y="190"/>
			<point x="378" y="150"/>
			<point x="378" y="82" type="curve" smooth="yes"/>
			<point x="378" y="-12"/>
			<point x="308" y="-64"/>
			<point x="212" y="-64" type="curve" smooth="yes"/>
			<point x="168" y="-64"/>
			<point x="112" y="-50"/>
			<point x="74" y="-32" type="curve"/>
			<point x="28" y="-140" type="line"/>
			<point x="84" y="-174"/>
			<point x="154" y="-188"/>
		</contour>
	</outline>
</glyph>
<glyph name="digamma" format="2">
	<unicode hex="03DD"/>
	<advance width="440"/>
	<outline>
		<contour>
			<point x="58" y="-176" type="line"/>
			<point x="232" y="-176" type="line"/>
			<point x="226" y="-72"/>
			<point x="222" y="12"/>
			<point x="222" y="110" type="curve"/>
			<point x="394" y="110" type="line"/>
			<point x="394" y="238" type="line"/>
			<point x="220" y="238" type="line"/>
			<point x="218" y="366" type="line"/>
			<point x="414" y="366" type="line"/>
			<point x="414" y="500" type="line"/>
			<point x="58" y="500" type="line"/>
		</contour>
	</outline>
	<anchor name="aboveLC" x="250" y="522"/>
	<anchor name="belowLC" x="110" y="-182"/>
</glyph>
<glyph name="sampi" format="2">
	<unicode hex="03E1"/>
	<advance width="550"/>
	<outline>
		<contour>
			<point x="520" y="-182" type="line"/>
			<point x="532" y="-113"/>
			<point x="540" y="-45"/>
			<point x="540" y="20" type="curve" smooth="yes"/>
			<point x="540" y="302"/>
			<point x="422" y="540"/>
			<point x="194" y="704" type="curve"/>
			<point x="82" y="578" type="line"/>
			<point x="282" y="438"/>
			<point x="370" y="250"/>
			<point x="370" y="22" type="curve" smooth="yes"/>
			<point x="370" y="-37"/>
			<point x="364" y="-96"/>
			<point x="352" y="-162" type="curve"/>
		</contour>
		<contour>
			<point x="172" y="-40" type="line"/>
			<point x="268" y="14"/>
			<point x="353" y="58"/>
			<point x="442" y="96" type="curve"/>
			<point x="450" y="257" type="line"/>
			<point x="102" y="104" type="line"/>
		</contour>
		<contour>
			<point x="76" y="173" type="line"/>
			<point x="172" y="227"/>
			<point x="257" y="271"/>
			<point x="346" y="309" type="curve"/>
			<point x="354" y="470" type="line"/>
			<point x="6" y="317" type="line"/>
		</contour>
	</outline>
</glyph>
<glyph name="Ieukran" format="2">
	<unicode hex="0404"/>
	<advance width="586"/>
	<outline>
		<contour>
			<point x="354" y="-12" type="curve" smooth="yes"/>
			<point x="438" y="-12"/>
			<point x="513" y="20"/>
			<point x="568" y="84" type="curve"/>
			<point x="478" y="192" type="line"/>
			<point x="450" y="162"/>
			<point x="410" y="136"/>
			<point x="360" y="136" type="curve" smooth="yes"/>
			<point x="268" y="136"/>
			<point x="214" y="186"/>
			<point x="214" y="326" type="curve" smooth="yes"/>
			<point x="214" y="462"/>
			<point x="278" y="514"/>
			<point x="362" y="514" type="curve" smooth="yes"/>
			<point x="406" y="514"/>
			<point x="438" y="494"/>
			<point x="470" y="466" type="curve"/>
			<point x="560" y="576" type="line"/>
			<point x="514" y="622"/>
			<point x="444" y="662"/>
			<point x="358" y="662" type="curve" smooth="yes"/>
			<point x="190" y="662"/>
			<point x="44" y="554"/>
			<point x="44" y="320" type="curve" smooth="yes"/>
			<point x="44" y="86"/>
			<point x="184" y="-12"/>
		</contour>
		<contour>
			<point x="144" y="260" type="line"/>
			<point x="426" y="260" type="line"/>
			<point x="426" y="404" type="line"/>
			<point x="144" y="404" type="line"/>
		</contour>
	</outline>
	<anchor name="aboveUC" x="340" y="672"/>
</glyph>
<glyph name="Lje" format="2">
	<unicode hex="0409"/>
	<advance width="910"/>
	<outline>
		<contour>
			<point x="70" y="-12" type="curve" smooth="yes"/>
			<point x="184" y="-12"/>
			<point x="244" y="52"/>
			<point x="288" y="278" type="curve" smooth="yes"/>
			<point x="302" y="352"/>
			<point x="314" y="424"/>
			<point x="328" y="506" type="curve"/>
			<point x="404" y="506" type="line"/>
			<point x="404" y="0" type="line"/>
			<point x="612" y="0" type="line" smooth="yes"/>
			<point x="756" y="0"/>
			<point x="876" y="54"/>
			<point x="876" y="218" type="curve" smooth="yes"/>
			<point x="876" y="366"/>
			<point x="764" y="424"/>
			<point x="616" y="424" type="curve" smooth="yes"/>
			<point x="576" y="424" type="line"/>
			<point x="576" y="650" type="line"/>
			<point x="196" y="650" type="line"/>
			<point x="174" y="532"/>
			<point x="154" y="412"/>
			<point x="128" y="296" type="curve" smooth="yes"/>
			<point x="98" y="162"/>
			<point x="76" y="148"/>
			<point x="44" y="148" type="curve" smooth="yes"/>
			<point x="32" y="148"/>
			<point x="24" y="150"/>
			<point x="16" y="152" type="curve"/>
			<point x="-14" y="-2" type="line"/>
			<point x="8" y="-8"/>
			<point x="30" y="-12"/>
		</contour>
		<contour>
			<point x="576" y="136" type="line"/>
			<point x="576" y="288" type="line"/>
			<point x="604" y="288" type="line" smooth="yes"/>
			<point x="674" y="288"/>
			<point x="708" y="264"/>
			<point x="708" y="216" type="curve" smooth="yes"/>
			<point x="708" y="158"/>
			<point x="668" y="136"/>
			<point x="604" y="136" type="curve" smooth="yes"/>
		</contour>
	</outline>
</glyph>
<glyph name="Nje" format="2">
	<unicode hex="040A"/>
	<advance width="934"/>
	<outline>
		<contour>
			<point x="72" y="0" type="line"/>
			<point x="244" y="0" type="line"/>
			<point x="244" y="258" type="line"/>
			<point x="428" y="258" type="line"/>
			<point x="428" y="0" type="line"/>
			<point x="636" y="0" type="line" smooth="yes"/>
			<point x="780" y="0"/>
			<point x="900" y="54"/>
			<point x="900" y="218" type="curve" smooth="yes"/>
			<point x="900" y="366"/>
			<point x="788" y="424"/>
			<point x="640" y="424" type="curve" smooth="yes"/>
			<point x="600" y="424" type="line"/>
			<point x="600" y="650" type="line"/>
			<point x="428" y="650" type="line"/>
			<point x="428" y="408" type="line"/>
			<point x="244" y="408" type="line"/>
			<point x="244" y="650" type="line"/>
			<point x="72" y="650" type="line"/>
		</contour>
		<contour>
			<point x="600" y="136" type="line"/>
			<point x="600" y="288" type="line"/>
			<point x="628" y="288" type="line" smooth="yes"/>
			<point x="698" y="288"/>
			<point x="732" y="264"/>
			<point x="732" y="216" type="curve" smooth="yes"/>
			<point x="732" y="158"/>
			<point x="692" y="136"/>
			<point x="628" y="136" type="curve" smooth="yes"/>
		</contour>
	</outline>
</glyph>
<glyph name="Dzhe" format="2">
	<unicode hex="040F"/>
	<advance width="670"/>
	<outline>
		<contour>
			<point x="260" y="-188" type="line"/>
			<point x="414" y="-188" type="line"/>
			<point x="426" y="0" type="line"/>
			<point x="598" y="0" type="line"/>
			<point x="598" y="650" type="line"/>
			<point x="426" y="650" type="line"/>
			<point x="426" y="144" type="line"/>
			<point x="244" y="144" type="line"/>
			<point x="244" y="650" type="line"/>
			<point x="72" y="650" type="line"/>
			<point x="72" y="0" type="line"/>
			<point x="260" y="0" type="line"/>
		</contour>
	</outline>
</glyph>
<glyph name="Be" format="2">
	<unicode hex="0411"/>
	<advance width="608"/>
	<outline>
		<contour>
			<point x="72" y="0" type="line"/>
			<point x="324" y="0" type="line" smooth="yes"/>
			<point x="458" y="0"/>
			<point x="574" y="56"/>
			<point x="574" y="210" type="curve" smooth="yes"/>
			<point x="574" y="358"/>
			<point x="456" y="404"/>
			<point x="320" y="404" type="curve" smooth="yes"/>
			<point x="244" y="404" type="line"/>
			<point x="244" y="506" type="line"/>
			<point x="532" y="506" type="line"/>
			<point x="532" y="650" type="line"/>
			<point x="72" y="650" type="line"/>
		</contour>
		<contour>
			<point x="244" y="132" type="line"/>
			<point x="244" y="278" type="line"/>
			<point x="308" y="278" type="line" smooth="yes"/>
			<point x="372" y="278"/>
			<point x="406" y="260"/>
			<point x="406" y="208" type="curve" smooth="yes"/>
			<point x="406" y="156"/>
			<point x="374" y="132"/>
			<point x="308" y="132" type="curve" smooth="yes"/>
		</contour>
	</outline>
</glyph>
<glyph name="De" format="2">
	<unicode hex="0414"/>
	<advance width="682"/>
	<outline>
		<contour>
			<point x="176" y="0" type="line"/>
			<point x="506" y="0" type="line"/>
			<point x="506" y="-188" type="line"/>
			<point x="660" y="-188" type="line"/>
			<point x="674" y="36" type="line"/>
			<point x="674" y="144" type="line"/>
			<point x="8" y="144" type="line"/>
			<point x="8" y="36" type="line"/>
			<point x="22" y="-188" type="line"/>
			<point x="176" y="-188" type="line"/>
		</contour>
		<contour>
			<point x="420" y="50" type="line"/>
			<point x="592" y="50" type="line"/>
			<point x="592" y="650" type="line"/>
			<point x="184" y="650" type="line"/>
			<point x="163" y="532"/>
			<point x="153" y="474"/>
			<point x="132" y="366" type="curve" smooth="yes"/>
			<point x="102" y="214"/>
			<point x="68" y="154"/>
			<point x="38" y="144" type="curve"/>
			<point x="60" y="36" type="line"/>
			<point x="182" y="36"/>
			<point x="250" y="158"/>
			<point x="286" y="344" type="curve" smooth="yes"/>
			<point x="299" y="412"/>
			<point x="304" y="440"/>
			<point x="316" y="506" type="curve"/>
			<point x="420" y="506" type="line"/>
		</contour>
	</outline>
</glyph>
<glyph name="Icyr" format="2">
	<unicode hex="0418"/>
	<advance width="684"/>
	<outline>
		<contour>
			<point x="72" y="0" type="line"/>
			<point x="254" y="0" type="line"/>
			<point x="398" y="291" type="line"/>
			<point x="460" y="436" type="line"/>
			<point x="464" y="436" type="line"/>
			<point x="456" y="362"/>
			<point x="442" y="268"/>
			<point x="442" y="188" type="curve" smooth="yes"/>
			<point x="442" y="0" type="line"/>
			<point x="612" y="0" type="line"/>
			<point x="612" y="650" type="line"/>
			<point x="430" y="650" type="line"/>
			<point x="286" y="360" type="line"/>
			<point x="224" y="214" type="line"/>
			<point x="220" y="214" type="line"/>
			<point x="228" y="284"/>
			<point x="242" y="382"/>
			<point x="242" y="462" type="curve" smooth="yes"/>
			<point x="242" y="650" type="line"/>
			<point x="72" y="650" type="line"/>
		</contour>
	</outline>
	<anchor name="aboveUC" x="346" y="682"/>
</glyph>
<glyph name="ghe" format="2">
	<unicode hex="0433"/>
	<advance width="440"/>
	<outline>
		<contour>
			<point x="58" y="0" type="line"/>
			<point x="230" y="0" type="line"/>
			<point x="230" y="366" type="line"/>
			<point x="414" y="366" type="line"/>
			<point x="414" y="500" type="line"/>
			<point x="58" y="500" type="line"/>
		</contour>
	</outline>
	<anchor name="aboveLC" x="240" y="522"/>
</glyph>
<glyph name="sha" format="2">
	<unicode hex="0448"/>
	<advance width="824"/>
	<outline>
		<contour>
			<point x="58" y="0" type="line"/>
			<point x="766" y="0" type="line"/>
			<point x="766" y="500" type="line"/>
			<point x="596" y="500" type="line"/>
			<point x="596" y="134" type="line"/>
			<point x="494" y="134" type="line"/>
			<point x="494" y="500" type="line"/>
			<point x="330" y="500" type="line"/>
			<point x="330" y="134" type="line"/>
			<point x="228" y="134" type="line"/>
			<point x="228" y="500" type="line"/>
			<point x="58" y="500" type="line"/>
		</contour>
	</outline>
</glyph>
<glyph name="Yat" format="2">
	<unicode hex="0462"/>
	<advance width="628"/>
	<outline>
		<contour>
			<point x="136" y="0" type="line"/>
			<point x="338" y="0" type="line" smooth="yes"/>
			<point x="478" y="0"/>
			<point x="594" y="50"/>
			<point x="594" y="214" type="curve" smooth="yes"/>
			<point x="594" y="348"/>
			<point x="474" y="394"/>
			<point x="334" y="394" type="curve" smooth="yes"/>
			<point x="308" y="394" type="line"/>
			<point x="308" y="696" type="line"/>
			<point x="136" y="696" type="line"/>
		</contour>
		<contour>
			<point x="308" y="132" type="line"/>
			<point x="308" y="274" type="line"/>
			<point x="326" y="274" type="line" smooth="yes"/>
			<point x="396" y="274"/>
			<point x="426" y="256"/>
			<point x="426" y="208" type="curve" smooth="yes"/>
			<point x="426" y="150"/>
			<point x="392" y="132"/>
			<point x="330" y="132" type="curve" smooth="yes"/>
		</contour>
		<contour>
			<point x="24" y="474" type="line"/>
			<point x="516" y="474" type="line"/>
			<point x="516" y="610" type="line"/>
			<point x="24" y="610" type="line"/>
		</contour>
	</outline>
	<anchor name="aboveUC" x="230" y="722"/>
</glyph>
<glyph name="Fita" format="2">
	<unicode hex="0472"/>
	<advance width="692"/>
	<outline>
		<contour>
			<point x="346" y="-12" type="curve" smooth="yes"/>
			<point x="524" y="-12"/>
			<point x="648" y="106"/>
			<point x="648" y="328" type="curve" smooth="yes"/>
			<point x="648" y="549"/>
			<point x="524" y="662"/>
			<point x="346" y="662" type="curve" smooth="yes"/>
			<point x="168" y="662"/>
			<point x="44" y="550"/>
			<point x="44" y="328" type="curve" smooth="yes"/>
			<point x="44" y="106"/>
			<point x="168" y="-12"/>
		</contour>
		<contour>
			<point x="346" y="128" type="curve" smooth="yes"/>
			<point x="264" y="128"/>
			<point x="214" y="198"/>
			<point x="214" y="328" type="curve" smooth="yes"/>
			<point x="214" y="458"/>
			<point x="264" y="522"/>
			<point x="346" y="522" type="curve" smooth="yes"/>
			<point x="428" y="522"/>
			<point x="478" y="458"/>
			<point x="478" y="328" type="curve" smooth="yes"/>
			<point x="478" y="198"/>
			<point x="428" y="128"/>
		</contour>
		<contour>
			<point x="164" y="264" type="line"/>
			<point x="548" y="264" type="line"/>
			<point x="548" y="400" type="line"/>
			<point x="164" y="400" type="line"/>
		</contour>
	</outline>
	<anchor name="aboveUC" x="346" y="672"/>
</glyph>
<glyph name="izhitsa" format="2">
	<unicode hex="0475"/>
	<advance width="554"/>
	<outline>
		<contour>
			<point x="176" y="0" type="line"/>
			<point x="382" y="0" type="line"/>
			<point x="460" y="302" type="line" smooth="yes"/>
			<point x="469" y="336"/>
			<point x="486" y="362"/>
			<point x="516" y="362" type="curve" smooth="yes"/>
			<point x="528" y="362"/>
			<point x="538" y="358"/>
			<point x="546" y="356" type="curve"/>
			<point x="574" y="500" type="line"/>
			<point x="552" y="508"/>
			<point x="534" y="512"/>
			<point x="494" y="512" type="curve" smooth="yes"/>
			<point x="394" y="512"/>
			<point x="346" y="450"/>
			<point x="316" y="324" type="curve" smooth="yes"/>
			<point x="306" y="282" type="line" smooth="yes"/>
			<point x="294" y="232"/>
			<point x="286" y="180"/>
			<point x="278" y="126" type="curve"/>
			<point x="274" y="126" type="line"/>
			<point x="262" y="180"/>
			<point x="250" y="232"/>
			<point x="238" y="282" type="curve" smooth="yes"/>
			<point x="184" y="500" type="line"/>
			<point x="12" y="500" type="line"/>
		</contour>
	</outline>
	<anchor name="aboveLC" x="300" y="522"/>
</glyph>
<glyph name="Zedescender" format="2">
	<unicode hex="0498"/>
	<advance width="568"/>
	<outline>
		<contour>
			<point x="206" y="-188" type="line"/>
			<point x="360" y="-188" type="line"/>
			<point x="374" y="24" type="line"/>
			<point x="206" y="0" type="line"/>
		</contour>
		<component base="Ze"/>
	</outline>
</glyph>
<glyph name="kabashkir" format="2">
	<unicode hex="04A1"/>
	<advance width="676"/>
	<outline>
		<contour>
			<point x="336" y="500" type="line"/>
			<point x="26" y="500" type="line"/>
			<point x="26" y="366" type="line"/>
			<point x="166" y="366" type="line"/>
		</contour>
		<component base="ka" xOffset="108"/>
	</outline>
</glyph>
<glyph name="Endescender" format="2">
	<unicode hex="04A2"/>
	<advance width="700"/>
	<outline>
		<contour>
			<point x="524" y="-188" type="line"/>
			<point x="678" y="-188" type="line"/>
			<point x="692" y="36" type="line"/>
			<point x="692" y="144" type="line"/>
			<point x="500" y="144" type="line"/>
			<point x="500" y="0" type="line"/>
			<point x="524" y="0" type="line"/>
		</contour>
		<component base="H"/>
	</outline>
</glyph>
<glyph name="esdescender" format="2">
	<unicode hex="04AB"/>
	<advance width="472"/>
	<outline>
		<contour>
			<point x="202" y="-172" type="line"/>
			<point x="348" y="-172" type="line"/>
			<point x="368" y="10" type="line"/>
			<point x="196" y="10" type="line"/>
		</contour>
		<component base="c"/>
	</outline>
</glyph>
<glyph name="Ustraightstroke" format="2">
	<unicode hex="04B0"/>
	<advance width="544"/>
	<outline>
		<contour>
			<point x="44" y="194" type="line"/>
			<point x="500" y="194" type="line"/>
			<point x="500" y="306" type="line"/>
			<point x="140" y="306" type="line"/>
			<point x="44" y="300" type="line"/>
		</contour>
		<component base="Y"/>
	</outline>
	<anchor name="aboveUC" x="270" y="672"/>
</glyph>
<glyph name="Enhook" format="2">
	<unicode hex="04C7"/>
	<advance width="682"/>
	<outline>
		<contour>
			<point x="416" y="-188" type="curve" smooth="yes"/>
			<point x="566" y="-188"/>
			<point x="610" y="-86"/>
			<point x="610" y="26" type="curve" smooth="yes"/>
			<point x="610" y="650" type="line"/>
			<point x="438" y="650" type="line"/>
			<point x="438" y="408" type="line"/>
			<point x="244" y="408" type="line"/>
			<point x="244" y="650" type="line"/>
			<point x="72" y="650" type="line"/>
			<point x="72" y="0" type="line"/>
			<point x="244" y="0" type="line"/>
			<point x="244" y="258" type="line"/>
			<point x="438" y="258" type="line"/>
			<point x="438" y="20" type="line" smooth="yes"/>
			<point x="438" y="-34"/>
			<point x="424" y="-54"/>
			<point x="388" y="-54" type="curve" smooth="yes"/>
			<point x="376" y="-54"/>
			<point x="366" y="-52"/>
			<point x="352" y="-48" type="curve"/>
			<point x="322" y="-174" type="line"/>
			<point x="344" y="-182"/>
			<point x="370" y="-188"/>
		</contour>
	</outline>
</glyph>
<glyph name="enhook" format="2">
	<unicode hex="04C8"/>
	<advance width="590"/>
	<outline>
		<contour>
			<point x="338" y="-188" type="curve" smooth="yes"/>
			<point x="488" y="-188"/>
			<point x="532" y="-86"/>
			<point x="532" y="26" type="curve" smooth="yes"/>
			<point x="532" y="500" type="line"/>
			<point x="360" y="500" type="line"/>
			<point x="360" y="328" type="line"/>
			<point x="230" y="328" type="line"/>
			<point x="230" y="500" type="line"/>
			<point x="58" y="500" type="line"/>
			<point x="58" y="0" type="line"/>
			<point x="230" y="0" type="line"/>
			<point x="230" y="178" type="line"/>
			<point x="360" y="178" type="line"/>
			<point x="360" y="20" type="line" smooth="yes"/>
			<point x="360" y="-34"/>
			<point x="346" y="-54"/>
			<point x="310" y="-54" type="curve" smooth="yes"/>
			<point x="298" y="-54"/>
			<point x="288" y="-52"/>
			<point x="274" y="-48" type="curve"/>
			<point x="244" y="-174" type="line"/>
			<point x="266" y="-182"/>
			<point x="292" y="-188"/>
		</contour>
	</outline>
</glyph>
<glyph name="ghedescender" format="2">
	<unicode hex="04F7"/>
	<advance width="440"/>
	<outline>
		<contour>
			<point x="146" y="-172" type="line"/>
			<point x="294" y="-172" type="line"/>
			<point x="310" y="20" type="line"/>
			<point x="310" y="134" type="line"/>
			<point x="118" y="134" type="line"/>
			<point x="118" y="0" type="line"/>
			<point x="146" y="0" type="line"/>
		</contour>
		<component base="ghe"/>
	</outline>
</glyph>
<glyph name="A.sups" format="2">
	<unicode hex="1D2C"/>
	<advance width="397"/>
	<outline>
		<contour>
			<point x="-7" y="368" type="line"/>
			<point x="116" y="368" type="line"/>
			<point x="164" y="578" type="line" smooth="yes"/>
			<point x="173" y="618"/>
			<point x="186" y="669"/>
			<point x="195" y="712" type="curve"/>
			<point x="197" y="712" type="line"/>
			<point x="208" y="670"/>
			<point x="220" y="618"/>
			<point x="229" y="578" type="curve" smooth="yes"/>
			<point x="277" y="368" type="line"/>
			<point x="405" y="368" type="line"/>
			<point x="272" y="800" type="line"/>
			<point x="126" y="800" type="line"/>
		</contour>
		<contour>
			<point x="89" y="458" type="line"/>
			<point x="305" y="458" type="line"/>
			<point x="305" y="549" type="line"/>
			<point x="89" y="549" type="line"/>
		</contour>
	</outline>
</glyph>
<glyph name="G.sups" format="2">
	<unicode hex="1D33"/>
	<advance width="438"/>
	<outline>
		<contour>
			<point x="250" y="360" type="curve" smooth="yes"/>
			<point x="312" y="360"/>
			<point x="366" y="384"/>
			<point x="400" y="412" type="curve"/>
			<point x="400" y="622" type="line"/>
			<point x="234" y="622" type="line"/>
			<point x="234" y="526" type="line"/>
			<point x="296" y="526" type="line"/>
			<point x="296" y="468" type="line"/>
			<point x="288" y="464"/>
			<point x="276" y="462"/>
			<point x="263" y="462" type="curve" smooth="yes"/>
			<point x="187" y="462"/>
			<point x="152" y="507"/>
			<point x="152" y="586" type="curve" smooth="yes"/>
			<point x="152" y="662"/>
			<point x="195" y="706"/>
			<point x="252" y="706" type="curve" smooth="yes"/>
			<point x="288" y="706"/>
			<point x="307" y="696"/>
			<point x="328" y="678" type="curve"/>
			<point x="392" y="752" type="line"/>
			<point x="358" y="782"/>
			<point x="314" y="808"/>
			<point x="252" y="808" type="curve" smooth="yes"/>
			<point x="132" y="808"/>
			<point x="30" y="726"/>
			<point x="30" y="580" type="curve" smooth="yes"/>
			<point x="30" y="434"/>
			<point x="126" y="360"/>
		</contour>
	</outline>
</glyph>
<glyph name="I.sups" format="2">
	<unicode hex="1D35"/>
	<advance width="213"/>
	<outline>
		<contour>
			<point x="47" y="368" type="line"/>
			<point x="167" y="368" type="line"/>
			<point x="167" y="800" type="line"/>
			<point x="47" y="800" type="line"/>
		</contour>
	</outline>
</glyph>
<glyph name="d.sups" format="2">
	<unicode hex="1D48"/>
	<advance width="390"/>
	<outline>
		<contour>
			<point x="160" y="360" type="curve" smooth="yes"/>
			<point x="192" y="360"/>
			<point x="222" y="376"/>
			<point x="244" y="398" type="curve"/>
			<point x="246" y="398" type="line"/>
			<point x="254" y="368" type="line"/>
			<point x="352" y="368" type="line"/>
			<point x="352" y="828" type="line"/>
			<point x="232" y="828" type="line"/>
			<point x="232" y="726" type="line"/>
			<point x="238" y="674" type="line"/>
			<point x="220" y="694"/>
			<point x="194" y="708"/>
			<point x="160" y="708" type="curve" smooth="yes"/>
			<point x="96" y="708"/>
			<point x="24" y="644"/>
			<point x="24" y="540" type="curve" smooth="yes"/>
			<point x="24" y="426"/>
			<point x="77" y="360"/>
		</contour>
		<contour>
			<point x="194" y="454" type="curve" smooth="yes"/>
			<point x="164" y="454"/>
			<point x="146" y="476"/>
			<point x="146" y="540" type="curve" smooth="yes"/>
			<point x="146" y="592"/>
			<point x="168" y="614"/>
			<point x="192" y="614" type="curve" smooth="yes"/>
			<point x="206" y="614"/>
			<point x="218" y="610"/>
			<point x="232" y="598" type="curve"/>
			<point x="232" y="478" type="line"/>
			<point x="222" y="460"/>
			<point x="210" y="454"/>
		</contour>
	</outline>
</glyph>
<glyph name="g.sups" format="2">
	<unicode hex="1D4D"/>
	<advance width="368"/>
	<outline>
		<contour>
			<point x="160" y="232" type="curve" smooth="yes"/>
			<point x="282" y="232"/>
			<point x="356" y="282"/>
			<point x="356" y="354" type="curve" smooth="yes"/>
			<point x="356" y="415"/>
			<point x="310" y="440"/>
			<point x="224" y="440" type="curve" smooth="yes"/>
			<point x="174" y="440" type="line" smooth="yes"/>
			<point x="140" y="440"/>
			<point x="128" y="444"/>
			<point x="128" y="458" type="curve" smooth="yes"/>
			<point x="128" y="466"/>
			<point x="130" y="470"/>
			<point x="136" y="476" type="curve"/>
			<point x="152" y="472"/>
			<point x="162" y="472"/>
			<point x="172" y="472" type="curve" smooth="yes"/>
			<point x="246" y="472"/>
			<point x="308" y="504"/>
			<point x="308" y="582" type="curve" smooth="yes"/>
			<point x="308" y="594"/>
			<point x="306" y="607"/>
			<point x="304" y="614" type="curve"/>
			<point x="350" y="614" type="line"/>
			<point x="350" y="700" type="line"/>
			<point x="226" y="700" type="line"/>
			<point x="210" y="706"/>
			<point x="190" y="708"/>
			<point x="172" y="708" type="curve" smooth="yes"/>
			<point x="97" y="708"/>
			<point x="27" y="669"/>
			<point x="27" y="586" type="curve" smooth="yes"/>
			<point x="27" y="548"/>
			<point x="48" y="517"/>
			<point x="73" y="502" type="curve"/>
			<point x="73" y="498" type="line"/>
			<point x="49" y="482"/>
			<point x="36" y="458"/>
			<point x="36" y="436" type="curve" smooth="yes"/>
			<point x="36" y="408"/>
			<point x="48" y="392"/>
			<point x="66" y="380" type="curve"/>
			<point x="66" y="376" type="line"/>
			<point x="36" y="362"/>
			<point x="20" y="342"/>
			<point x="20" y="314" type="curve" smooth="yes"/>
			<point x="20" y="254"/>
			<point x="84" y="232"/>
		</contour>
		<contour>
			<point x="172" y="542" type="curve" smooth="yes"/>
			<point x="152" y="542"/>
			<point x="138" y="556"/>
			<point x="138" y="586" type="curve" smooth="yes"/>
			<point x="138" y="616"/>
			<point x="152" y="630"/>
			<point x="172" y="630" type="curve" smooth="yes"/>
			<point x="192" y="630"/>
			<point x="205" y="616"/>
			<point x="205" y="586" type="curve" smooth="yes"/>
			<point x="205" y="556"/>
			<point x="192" y="542"/>
		</contour>
		<contour>
			<point x="180" y="304" type="curve" smooth="yes"/>
			<point x="142" y="304"/>
			<point x="116" y="314"/>
			<point x="116" y="334" type="curve" smooth="yes"/>
			<point x="116" y="342"/>
			<point x="121" y="349"/>
			<point x="128" y="356" type="curve"/>
			<point x="142" y="352"/>
			<point x="158" y="352"/>
			<point x="174" y="352" type="curve" smooth="yes"/>
			<point x="200" y="352" type="line" smooth="yes"/>
			<point x="228" y="352"/>
			<point x="242" y="348"/>
			<point x="242" y="333" type="curve" smooth="yes"/>
			<point x="242" y="316"/>
			<point x="216" y="304"/>
		</contour>
	</outline>
</glyph>
<glyph name="m.sups" format="2">
	<unicode hex="1D50"/>
	<advance width="584"/>
	<outline>
		<contour>
			<point x="38" y="368" type="line"/>
			<point x="158" y="368" type="line"/>
			<point x="158" y="584" type="line"/>
			<point x="174" y="600"/>
			<point x="188" y="608"/>
			<point x="200" y="608" type="curve" smooth="yes"/>
			<point x="226" y="608"/>
			<point x="234" y="592"/>
			<point x="234" y="556" type="curve" smooth="yes"/>
			<point x="234" y="368" type="line"/>
			<point x="354" y="368" type="line"/>
			<point x="354" y="584" type="line"/>
			<point x="370" y="600"/>
			<point x="384" y="608"/>
			<point x="396" y="608" type="curve" smooth="yes"/>
			<point x="422" y="608"/>
			<point x="430" y="592"/>
			<point x="430" y="556" type="curve" smooth="yes"/>
			<point x="430" y="368" type="line"/>
			<point x="550" y="368" type="line"/>
			<point x="550" y="570" type="line" smooth="yes"/>
			<point x="550" y="654"/>
			<point x="516" y="708"/>
			<point x="442" y="708" type="curve" smooth="yes"/>
			<point x="396" y="708"/>
			<point x="366" y="682"/>
			<point x="339" y="654" type="curve"/>
			<point x="320" y="688"/>
			<point x="291" y="708"/>
			<point x="246" y="708" type="curve" smooth="yes"/>
			<point x="200" y="708"/>
			<point x="172" y="684"/>
			<point x="146" y="658" type="curve"/>
			<point x="144" y="658" type="line"/>
			<point x="135" y="700" type="line"/>
			<point x="38" y="700" type="line"/>
		</contour>
	</outline>
</glyph>
<glyph name="p.sups" format="2">
	<unicode hex="1D56"/>
	<advance width="390"/>
	<outline>
		<contour>
			<point x="38" y="236" type="line"/>
			<point x="158" y="236" type="line"/>
			<point x="158" y="326" type="line"/>
			<point x="152" y="394" type="line"/>
			<point x="174" y="372"/>
			<point x="200" y="360"/>
			<point x="228" y="360" type="curve" smooth="yes"/>
			<point x="298" y="360"/>
			<point x="366" y="424"/>
			<point x="366" y="540" type="curve" smooth="yes"/>
			<point x="366" y="640"/>
			<point x="314" y="708"/>
			<point x="236" y="708" type="curve" smooth="yes"/>
			<point x="204" y="708"/>
			<point x="166" y="690"/>
			<point x="144" y="668" type="curve"/>
			<point x="142" y="668" type="line"/>
			<point x="134" y="700" type="line"/>
			<point x="38" y="700" type="line"/>
		</contour>
		<contour>
			<point x="198" y="454" type="curve" smooth="yes"/>
			<point x="184" y="454"/>
			<point x="172" y="458"/>
			<point x="158" y="468" type="curve"/>
			<point x="158" y="590" type="line"/>
			<point x="172" y="606"/>
			<point x="184" y="612"/>
			<point x="200" y="612" type="curve" smooth="yes"/>
			<point x="228" y="612"/>
			<point x="244" y="592"/>
			<point x="244" y="538" type="curve" smooth="yes"/>
			<point x="244" y="476"/>
			<point x="222" y="454"/>
		</contour>
	</outline>
</glyph>
<glyph name="hyphen" format="2">
	<unicode hex="2011"/>
	<unicode hex="002D"/>
	<unicode hex="00AD"/>
	<unicode hex="2010"/>
	<advance width="340"/>
	<outline>
		<contour>
			<point x="44" y="194" type="line"/>
			<point x="296" y="194" type="line"/>
			<point x="296" y="314" type="line"/>
			<point x="44" y="314" type="line"/>
		</contour>
	</outline>
</glyph>
<glyph name="endash" format="2">
	<unicode hex="2013"/>
	<advance width="480"/>
	<outline>
		<contour>
			<point x="44" y="200" type="line"/>
			<point x="436" y="200" type="line"/>
			<point x="436" y="308" type="line"/>
			<point x="44" y="308" type="line"/>
		</contour>
	</outline>
</glyph>
<glyph name="won" format="2">
	<unicode hex="20A9"/>
	<advance width="540"/>
	<outline>
		<contour>
			<point x="76" y="0" type="line"/>
			<point x="242" y="0" type="line"/>
			<point x="258" y="268" type="line"/>
			<point x="268" y="475" type="line"/>
			<point x="272" y="475" type="line"/>
			<point x="284" y="268" type="line"/>
			<point x="302" y="0" type="line"/>
			<point x="472" y="0" type="line"/>
			<point x="536" y="634" type="line"/>
			<point x="398" y="634" type="line"/>
			<point x="386" y="270" type="line"/>
			<point x="382" y="118" type="line"/>
			<point x="378" y="118" type="line"/>
			<point x="366" y="270" type="line"/>
			<point x="338" y="594" type="line"/>
			<point x="212" y="594" type="line"/>
			<point x="186" y="270" type="line"/>
			<point x="176" y="118" type="line"/>
			<point x="172" y="118" type="line"/>
			<point x="168" y="270" type="line"/>
			<point x="156" y="634" type="line"/>
			<point x="6" y="634" type="line"/>
		</contour>
		<contour>
			<point x="-20" y="288" type="line"/>
			<point x="560" y="288" type="line"/>
			<point x="560" y="352" type="line"/>
			<point x="48" y="352" type="line"/>
			<point x="-20" y="346" type="line"/>
		</contour>
	</outline>
</glyph>
<glyph name="hryvnia" format="2">
	<unicode hex="20B4"/>
	<advance width="540"/>
	<outline>
		<contour>
			<point x="298" y="-12" type="curve" smooth="yes"/>
			<point x="374" y="-12"/>
			<point x="448" y="22"/>
			<point x="502" y="76" type="curve"/>
			<point x="430" y="172" type="line"/>
			<point x="382" y="132"/>
			<point x="342" y="120"/>
			<point x="298" y="120" type="curve" smooth="yes"/>
			<point x="262" y="120"/>
			<point x="238" y="138"/>
			<point x="238" y="174" type="curve" smooth="yes"/>
			<point x="238" y="272"/>
			<point x="466" y="304"/>
			<point x="466" y="458" type="curve" smooth="yes"/>
			<point x="466" y="580"/>
			<point x="387" y="646"/>
			<point x="258" y="646" type="curve" smooth="yes"/>
			<point x="178" y="646"/>
			<point x="118" y="608"/>
			<point x="69" y="558" type="curve"/>
			<point x="150" y="466" type="line"/>
			<point x="183" y="498"/>
			<point x="215" y="514"/>
			<point x="248" y="514" type="curve" smooth="yes"/>
			<point x="284" y="514"/>
			<point x="302" y="496"/>
			<point x="302" y="462" type="curve" smooth="yes"/>
			<point x="302" y="370"/>
			<point x="74" y="346"/>
			<point x="74" y="184" type="curve" smooth="yes"/>
			<point x="74" y="66"/>
			<point x="148" y="-12"/>
		</contour>
		<contour>
			<point x="20" y="340" type="line"/>
			<point x="512" y="340" type="line"/>
			<point x="512" y="424" type="line"/>
			<point x="96" y="424" type="line"/>
			<point x="20" y="418" type="line"/>
		</contour>
		<contour>
			<point x="20" y="212" type="line"/>
			<point x="512" y="212" type="line"/>
			<point x="512" y="296" type="line"/>
			<point x="96" y="296" type="line"/>
			<point x="20" y="290" type="line"/>
		</contour>
	</outline>
</glyph>
<glyph name="tenge" format="2">
	<unicode hex="20B8"/>
	<advance width="540"/>
	<outline>
		<contour>
			<point x="184" y="0" type="line"/>
			<point x="356" y="0" type="line"/>
			<point x="356" y="422" type="line"/>
			<point x="508" y="422" type="line"/>
			<point x="508" y="506" type="line"/>
			<point x="108" y="506" type="line"/>
			<point x="32" y="500" type="line"/>
			<point x="32" y="422" type="line"/>
			<point x="184" y="422" type="line"/>
		</contour>
		<contour>
			<point x="32" y="550" type="line"/>
			<point x="508" y="550" type="line"/>
			<point x="508" y="634" type="line"/>
			<point x="32" y="634" type="line"/>
		</contour>
	</outline>
</glyph>
<glyph name="rupeeindian" format="2">
	<unicode hex="20B9"/>
	<advance width="540"/>
	<outline>
		<contour>
			<point x="68" y="182" type="line"/>
			<point x="142" y="182" type="line" smooth="yes"/>
			<point x="282" y="182"/>
			<point x="402" y="249"/>
			<point x="402" y="414" type="curve" smooth="yes"/>
			<point x="402" y="472"/>
			<point x="382" y="518"/>
			<point x="342" y="550" type="curve"/>
			<point x="470" y="550" type="line"/>
			<point x="470" y="634" type="line"/>
			<point x="68" y="634" type="line"/>
			<point x="68" y="498" type="line"/>
			<point x="130" y="498" type="line" smooth="yes"/>
			<point x="198" y="498"/>
			<point x="234" y="478"/>
			<point x="234" y="414" type="curve" smooth="yes"/>
			<point x="234" y="351"/>
			<point x="198" y="318"/>
			<point x="130" y="318" type="curve" smooth="yes"/>
			<point x="68" y="318" type="line"/>
		</contour>
		<contour>
			<point x="68" y="370" type="line"/>
			<point x="470" y="370" type="line"/>
			<point x="470" y="454" type="line"/>
			<point x="144" y="454" type="line"/>
			<point x="68" y="448" type="line"/>
		</contour>
		<contour>
			<point x="266" y="0" type="line"/>
			<point x="458" y="0" type="line"/>
			<point x="227" y="301" type="line"/>
			<point x="111" y="217" type="line"/>
		</contour>
	</outline>
</glyph>
<glyph name="ruble" format="2">
	<unicode hex="20BD"/>
	<advance width="540"/>
	<outline>
		<contour>
			<point x="106" y="0" type="line"/>
			<point x="268" y="0" type="line"/>
			<point x="268" y="262" type="line"/>
			<point x="292" y="262" type="line" smooth="yes"/>
			<point x="408" y="262"/>
			<point x="518" y="317"/>
			<point x="518" y="456" type="curve" smooth="yes"/>
			<point x="518" y="580"/>
			<point x="414" y="634"/>
			<point x="292" y="634" type="curve" smooth="yes"/>
			<point x="106" y="634" type="line"/>
		</contour>
		<contour>
			<point x="268" y="346" type="line"/>
			<point x="268" y="528" type="line"/>
			<point x="288" y="528" type="line" smooth="yes"/>
			<point x="331" y="528"/>
			<point x="360" y="503"/>
			<point x="360" y="446" type="curve" smooth="yes"/>
			<point x="360" y="388"/>
			<point x="331" y="346"/>
			<point x="288" y="346" type="curve" smooth="yes"/>
		</contour>
		<contour>
			<point x="38" y="134" type="line"/>
			<point x="450" y="134" type="line"/>
			<point x="450" y="218" type="line"/>
			<point x="114" y="218" type="line"/>
			<point x="38" y="212" type="line"/>
		</contour>
		<contour>
			<point x="38" y="262" type="line"/>
			<point x="170" y="262" type="line"/>
			<point x="170" y="346" type="line"/>
			<point x="114" y="346" type="line"/>
			<point x="38" y="340" type="line"/>
		</contour>
	</outline>
</glyph>
<glyph name="arrowdblup" format="2">
	<unicode hex="21D1"/>
	<advance width="616"/>
	<outline>
		<contour>
			<point x="130" y="170" type="line"/>
			<point x="306" y="378" type="line"/>
			<point x="310" y="378" type="line"/>
			<point x="486" y="170" type="line"/>
			<point x="578" y="250" type="line"/>
			<point x="310" y="530" type="line"/>
			<point x="306" y="530" type="line"/>
			<point x="38" y="250" type="line"/>
		</contour>
		<contour>
			<point x="334" y="-26" type="line"/>
			<point x="432" y="-26" type="line"/>
			<point x="432" y="380" type="line"/>
			<point x="334" y="380" type="line"/>
		</contour>
		<contour>
			<point x="184" y="-26" type="line"/>
			<point x="282" y="-26" type="line"/>
			<point x="282" y="380" type="line"/>
			<point x="184" y="380" type="line"/>
		</contour>
	</outline>
</glyph>
<glyph name="shift" format="2">
	<unicode hex="21E7"/>
	<advance width="800"/>
	<outline>
		<contour>
			<point x="202" y="-66" type="line"/>
			<point x="598" y="-66" type="line"/>
			<point x="598" y="264" type="line"/>
			<point x="744" y="264" type="line"/>
			<point x="784" y="358" type="line"/>
			<point x="402" y="708" type="line"/>
			<point x="398" y="708" type="line"/>
			<point x="16" y="358" type="line"/>
			<point x="56" y="264" type="line"/>
			<point x="202" y="264" type="line"/>
		</contour>
		<contour>
			<point x="312" y="34" type="line"/>
			<point x="312" y="364" type="line"/>
			<point x="196" y="364" type="line"/>
			<point x="194" y="368" type="line"/>
			<point x="398" y="556" type="line"/>
			<point x="402" y="556" type="line"/>
			<point x="606" y="368" type="line"/>
			<point x="604" y="364" type="line"/>
			<point x="488" y="364" type="line"/>
			<point x="488" y="34" type="line"/>
		</contour>
	</outline>
</glyph>
<glyph name="partialdiff" format="2">
	<unicode hex="2202"/>
	<advance width="596"/>
	<outline>
		<contour>
			<point x="253" y="-12" type="curve" smooth="yes"/>
			<point x="424" y="-12"/>
			<point x="546" y="142"/>
			<point x="546" y="380" type="curve" smooth="yes"/>
			<point x="546" y="548"/>
			<point x="470" y="662"/>
			<point x="305" y="662" type="curve" smooth="yes"/>
			<point x="232" y="662"/>
			<point x="172" y="634"/>
			<point x="114" y="586" type="curve"/>
			<point x="187" y="480" type="line"/>
			<point x="218" y="509"/>
			<point x="248" y="524"/>
			<point x="286" y="524" type="curve" smooth="yes"/>
			<point x="362" y="524"/>
			<point x="384" y="466"/>
			<point x="384" y="375" type="curve" smooth="yes"/>
			<point x="384" y="171"/>
			<point x="324" y="126"/>
			<point x="272" y="126" type="curve" smooth="yes"/>
			<point x="239" y="126"/>
			<point x="208" y="147"/>
			<point x="208" y="197" type="curve" smooth="yes"/>
			<point x="208" y="268"/>
			<point x="247" y="288"/>
			<point x="287" y="288" type="curve" smooth="yes"/>
			<point x="321" y="288"/>
			<point x="353" y="272"/>
			<point x="375" y="228" type="curve"/>
			<point x="395" y="346" type="line"/>
			<point x="364" y="392"/>
			<point x="315" y="418"/>
			<point x="265" y="418" type="curve" smooth="yes"/>
			<point x="143" y="418"/>
			<point x="51" y="326"/>
			<point x="51" y="187" type="curve" smooth="yes"/>
			<point x="51" y="65"/>
			<point x="142" y="-12"/>
		</contour>
	</outline>
</glyph>
<glyph name="product" format="2">
	<unicode hex="220F"/>
	<advance width="724"/>
	<outline>
		<contour>
			<point x="76" y="-120" type="line"/>
			<point x="248" y="-120" type="line"/>
			<point x="248" y="484" type="line"/>
			<point x="476" y="484" type="line"/>
			<point x="476" y="-120" type="line"/>
			<point x="648" y="-120" type="line"/>
			<point x="648" y="634" type="line"/>
			<point x="76" y="634" type="line"/>
		</contour>
	</outline>
</glyph>
<glyph name="integral" format="2">
	<unicode hex="222B"/>
	<advance width="412"/>
	<outline>
		<contour>
			<point x="99" y="-144" type="curve" smooth="yes"/>
			<point x="272" y="-144"/>
			<point x="306" y="-35"/>
			<point x="306" y="110" type="curve" smooth="yes"/>
			<point x="306" y="282"/>
			<point x="270" y="400"/>
			<point x="270" y="556" type="curve" smooth="yes"/>
			<point x="270" y="646"/>
			<point x="282" y="678"/>
			<point x="332" y="678" type="curve" smooth="yes"/>
			<point x="346" y="678"/>
			<point x="358" y="677"/>
			<point x="368" y="674" type="curve"/>
			<point x="384" y="798" type="line"/>
			<point x="372" y="801"/>
			<point x="348" y="806"/>
			<point x="323" y="806" type="curve" smooth="yes"/>
			<point x="150" y="806"/>
			<point x="116" y="697"/>
			<point x="116" y="552" type="curve" smooth="yes"/>
			<point x="116" y="380"/>
			<point x="152" y="262"/>
			<point x="152" y="106" type="curve" smooth="yes"/>
			<point x="152" y="14"/>
			<point x="140" y="-16"/>
			<point x="90" y="-16" type="curve" smooth="yes"/>
			<point x="76" y="-16"/>
			<point x="64" y="-15"/>
			<point x="54" y="-12" type="curve"/>
			<point x="38" y="-136" type="line"/>
			<point x="50" y="-139"/>
			<point x="74" y="-144"/>
		</contour>
	</outline>
</glyph>
<glyph name="notequal" format="2">
	<unicode hex="2260"/>
	<advance width="540"/>
	<outline>
		<contour>
			<point x="48" y="30" type="line"/>
			<point x="154" y="30" type="line"/>
			<point x="224" y="150" type="line"/>
			<point x="506" y="150" type="line"/>
			<point x="506" y="270" type="line"/>
			<point x="290" y="270" type="line"/>
			<point x="356" y="390" type="line"/>
			<point x="506" y="390" type="line"/>
			<point x="506" y="510" type="line"/>
			<point x="422" y="510" type="line"/>
			<point x="492" y="630" type="line"/>
			<point x="386" y="630" type="line"/>
			<point x="316" y="510" type="line"/>
			<point x="34" y="510" type="line"/>
			<point x="34" y="390" type="line"/>
			<point x="250" y="390" type="line"/>
			<point x="184" y="270" type="line"/>
			<point x="34" y="270" type="line"/>
			<point x="34" y="150" type="line"/>
			<point x="118" y="150" type="line"/>
		</contour>
	</outline>
</glyph>
<glyph name="greaterequal" format="2">
	<unicode hex="2265"/>
	<advance width="540"/>
	<outline>
		<contour>
			<point x="34" y="154" type="line"/>
			<point x="506" y="292" type="line"/>
			<point x="506" y="432" type="line"/>
			<point x="34" y="570" type="line"/>
			<point x="34" y="430" type="line"/>
			<point x="192" y="394" type="line"/>
			<point x="332" y="364" type="line"/>
			<point x="332" y="360" type="line"/>
			<point x="192" y="330" type="line"/>
			<point x="34" y="294" type="line"/>
		</contour>
		<contour>
			<point x="34" y="0" type="line"/>
			<point x="506" y="0" type="line"/>
			<point x="506" y="120" type="line"/>
			<point x="34" y="120" type="line"/>
		</contour>
	</outline>
</glyph>
<glyph name="ceilingright" format="2">
	<unicode hex="231D"/>
	<advance width="360"/>
	<outline>
		<contour>
			<point x="148" y="0" type="line"/>
			<point x="276" y="0" type="line"/>
			<point x="276" y="692" type="line"/>
			<point x="52" y="692" type="line"/>
			<point x="52" y="602" type="line"/>
			<point x="148" y="602" type="line"/>
		</contour>
	</outline>
</glyph>
<glyph name="checkedbox" format="2">
	<unicode hex="2611"/>
	<advance width="810"/>
	<outline>
		<contour>
			<point x="320" y="110" type="curve"/>
			<point x="478" y="128" type="line"/>
			<point x="558" y="422"/>
			<point x="688" y="612"/>
			<point x="810" y="730" type="curve"/>
			<point x="706" y="820" type="line"/>
			<point x="582" y="688"/>
			<point x="460" y="476"/>
			<point x="390" y="236" type="curve"/>
			<point x="386" y="236" type="line"/>
			<point x="359" y="308"/>
			<point x="332" y="378"/>
			<point x="288" y="450" type="curve"/>
			<point x="180" y="380" type="line"/>
			<point x="243" y="287"/>
			<point x="283" y="212"/>
		</contour>
		<component base="checkbox"/>
	</outline>
</glyph>
<glyph name="xballotheavy" format="2">
	<unicode hex="2718"/>
	<advance width="638"/>
	<outline>
		<contour>
			<point x="208" y="-68" type="line"/>
			<point x="294" y="177"/>
			<point x="455" y="416"/>
			<point x="634" y="572" type="curve"/>
			<point x="496" y="690" type="line"/>
			<point x="318" y="528"/>
			<point x="130" y="281"/>
			<point x="46" y="32" type="curve"/>
		</contour>
		<contour>
			<point x="412" y="-34" type="curve"/>
			<point x="590" y="28" type="line"/>
			<point x="534" y="283"/>
			<point x="409" y="510"/>
			<point x="280" y="682" type="curve"/>
			<point x="114" y="598" type="line"/>
			<point x="243" y="419"/>
			<point x="352" y="211"/>
		</contour>
	</outline>
</glyph>
<glyph name="brackhalfbotleft" format="2">
	<unicode hex="2E24"/>
	<advance width="360"/>
	<outline>
		<contour>
			<point x="84" y="-152" type="line"/>
			<point x="308" y="-152" type="line"/>
			<point x="308" y="-62" type="line"/>
			<point x="212" y="-62" type="line"/>
			<point x="212" y="278" type="line"/>
			<point x="84" y="278" type="line"/>
		</contour>
	</outline>
</glyph>
<glyph name="AlefEgypt" format="2">
	<unicode hex="A722"/>
	<advance width="360"/>
	<outline>
		<contour>
			<point x="98" y="-12" type="line"/>
			<point x="246" y="-8"/>
			<point x="324" y="60"/>
			<point x="324" y="172" type="curve" smooth="yes"/>
			<point x="324" y="262"/>
			<point x="268" y="316"/>
			<point x="174" y="316" type="curve" smooth="yes"/>
			<point x="98" y="316"/>
			<point x="56" y="278"/>
			<point x="56" y="218" type="curve" smooth="yes"/>
			<point x="56" y="162"/>
			<point x="98" y="128"/>
			<point x="156" y="128" type="curve" smooth="yes"/>
			<point x="182" y="128"/>
			<point x="212" y="142"/>
			<point x="230" y="156" type="curve"/>
			<point x="190" y="156" type="line"/>
			<point x="190" y="148"/>
			<point x="190" y="142"/>
			<point x="190" y="132" type="curve" smooth="yes"/>
			<point x="190" y="106"/>
			<point x="146" y="85"/>
			<point x="76" y="76" type="curve"/>
		</contour>
		<contour>
			<point x="98" y="334" type="line"/>
			<point x="246" y="338"/>
			<point x="324" y="406"/>
			<point x="324" y="518" type="curve" smooth="yes"/>
			<point x="324" y="608"/>
			<point x="268" y="662"/>
			<point x="174" y="662" type="curve" smooth="yes"/>
			<point x="98" y="662"/>
			<point x="56" y="624"/>
			<point x="56" y="564" type="curve" smooth="yes"/>
			<point x="56" y="508"/>
			<point x="98" y="474"/>
			<point x="156" y="474" type="curve" smooth="yes"/>
			<point x="182" y="474"/>
			<point x="212" y="488"/>
			<point x="230" y="502" type="curve"/>
			<point x="190" y="502" type="line"/>
			<point x="190" y="494"/>
			<point x="190" y="488"/>
			<point x="190" y="478" type="curve" smooth="yes"/>
			<point x="190" y="452"/>
			<point x="146" y="431"/>
			<point x="76" y="422" type="curve"/>
		</contour>
	</outline>
</glyph>
<glyph name="ainEgypt" format="2">
	<unicode hex="A725"/>
	<advance width="340"/>
	<outline>
		<contour>
			<point x="262" y="236" type="curve"/>
			<point x="282" y="306" type="line"/>
			<point x="208" y="312"/>
			<point x="188" y="335"/>
			<point x="188" y="362" type="curve" smooth="yes"/>
			<point x="188" y="373"/>
			<point x="188" y="381"/>
			<point x="188" y="390" type="curve"/>
			<point x="140" y="390" type="line"/>
			<point x="158" y="379"/>
			<point x="188" y="368"/>
			<point x="214" y="368" type="curve" smooth="yes"/>
			<point x="266" y="368"/>
			<point x="304" y="391"/>
			<point x="304" y="436" type="curve" smooth="yes"/>
			<point x="304" y="484"/>
			<point x="266" y="512"/>
			<point x="192" y="512" type="curve" smooth="yes"/>
			<point x="108" y="512"/>
			<point x="56" y="466"/>
			<point x="56" y="386" type="curve" smooth="yes"/>
			<point x="56" y="298"/>
			<point x="110" y="238"/>
		</contour>
	</outline>
</glyph>
<glyph name="F.sups" format="2">
	<unicode hex="A7F3"/>
	<advance width="363"/>
	<outline>
		<contour>
			<point x="47" y="368" type="line"/>
			<point x="167" y="368" type="line"/>
			<point x="167" y="523" type="line"/>
			<point x="312" y="523" type="line"/>
			<point x="312" y="622" type="line"/>
			<point x="167" y="622" type="line"/>
			<point x="167" y="701" type="line"/>
			<point x="336" y="701" type="line"/>
			<point x="336" y="800" type="line"/>
			<point x="47" y="800" type="line"/>
		</contour>
	</outline>
</glyph>
<glyph name="Q.sups" format="2">
	<unicode hex="A7F4"/>
	<advance width="468"/>
	<outline>
		<contour>
			<point x="231" y="360" type="curve" smooth="yes"/>
			<point x="353" y="360"/>
			<point x="437" y="444"/>
			<point x="437" y="585" type="curve" smooth="yes"/>
			<point x="437" y="727"/>
			<point x="353" y="808"/>
			<point x="231" y="808" type="curve" smooth="yes"/>
			<point x="108" y="808"/>
			<point x="26" y="728"/>
			<point x="26" y="585" type="curve" smooth="yes"/>
			<point x="26" y="444"/>
			<point x="108" y="360"/>
		</contour>
		<contour>
			<point x="231" y="458" type="curve" smooth="yes"/>
			<point x="179" y="458"/>
			<point x="149" y="506"/>
			<point x="149" y="585" type="curve" smooth="yes"/>
			<point x="149" y="662"/>
			<point x="179" y="705"/>
			<point x="231" y="705" type="curve" smooth="yes"/>
			<point x="282" y="705"/>
			<point x="314" y="662"/>
			<point x="314" y="585" type="curve" smooth="yes"/>
			<point x="314" y="506"/>
			<point x="282" y="458"/>
		</contour>
		<contour>
			<point x="381" y="246" type="curve" smooth="yes"/>
			<point x="420" y="246"/>
			<point x="449" y="253"/>
			<point x="467" y="263" type="curve"/>
			<point x="446" y="348" type="line"/>
			<point x="432" y="343"/>
			<point x="415" y="340"/>
			<point x="395" y="340" type="curve" smooth="yes"/>
			<point x="358" y="340"/>
			<point x="312" y="347"/>
			<point x="296" y="385" type="curve"/>
			<point x="175" y="372" type="line"/>
			<point x="207" y="297"/>
			<point x="278" y="246"/>
		</contour>
	</outline>
</glyph>
<glyph name="noncommercial" format="2">
	<unicode hex="1F10F"/>
	<advance width="740"/>
	<outline>
		<contour>
			<point x="376" y="-8" type="curve" smooth="yes"/>
			<point x="554" y="-8"/>
			<point x="708" y="118"/>
			<point x="708" y="326" type="curve" smooth="yes"/>
			<point x="708" y="534"/>
			<point x="554" y="656"/>
			<point x="376" y="656" type="curve" smooth="yes"/>
			<point x="198" y="656"/>
			<point x="44" y="533"/>
			<point x="44" y="326" type="curve" smooth="yes"/>
			<point x="44" y="118"/>
			<point x="198" y="-8"/>
		</contour>
		<contour>
			<point x="376" y="60" type="curve" smooth="yes"/>
			<point x="230" y="60"/>
			<point x="120" y="166"/>
			<point x="120" y="326" type="curve" smooth="yes"/>
			<point x="120" y="486"/>
			<point x="230" y="588"/>
			<point x="376" y="588" type="curve" smooth="yes"/>
			<point x="522" y="588"/>
			<point x="632" y="486"/>
			<point x="632" y="326" type="curve" smooth="yes"/>
			<point x="632" y="166"/>
			<point x="522" y="60"/>
		</contour>
		<contour>
			<point x="382" y="128" type="curve" smooth="yes"/>
			<point x="456" y="128"/>
			<point x="504" y="170"/>
			<point x="504" y="228" type="curve" smooth="yes"/>
			<point x="504" y="244"/>
			<point x="500" y="256"/>
			<point x="484" y="270" type="curve"/>
			<point x="466" y="228" type="line"/>
			<point x="632" y="138" type="line"/>
			<point x="658" y="218" type="line"/>
			<point x="376" y="376" type="line" smooth="yes"/>
			<point x="363" y="383"/>
			<point x="360" y="389"/>
			<point x="360" y="398" type="curve" smooth="yes"/>
			<point x="360" y="410"/>
			<point x="375" y="418"/>
			<point x="392" y="418" type="curve" smooth="yes"/>
			<point x="421" y="418"/>
			<point x="438" y="408"/>
			<point x="460" y="387" type="curve"/>
			<point x="526" y="452" type="line"/>
			<point x="490" y="488"/>
			<point x="444" y="518"/>
			<point x="386" y="518" type="curve" smooth="yes"/>
			<point x="306" y="518"/>
			<point x="266" y="479"/>
			<point x="266" y="428" type="curve" smooth="yes"/>
			<point x="266" y="408"/>
			<point x="274" y="392"/>
			<point x="300" y="370" type="curve"/>
			<point x="308" y="412" type="line"/>
			<point x="120" y="514" type="line"/>
			<point x="94" y="434" type="line"/>
			<point x="390" y="268" type="line" smooth="yes"/>
			<point x="397" y="264"/>
			<point x="404" y="258"/>
			<point x="404" y="250" type="curve" smooth="yes"/>
			<point x="404" y="236"/>
			<point x="392" y="228"/>
			<point x="372" y="228" type="curve" smooth="yes"/>
			<point x="337" y="228"/>
			<point x="311" y="241"/>
			<point x="284" y="268" type="curve"/>
			<point x="220" y="206" type="line"/>
			<point x="258" y="158"/>
			<point x="312" y="128"/>
		</contour>
		<contour>
			<point x="326" y="76" type="line"/>
			<point x="426" y="76" type="line"/>
			<point x="426" y="138" type="line"/>
			<point x="326" y="138" type="line"/>
		</contour>
		<contour>
			<point x="336" y="498" type="line"/>
			<point x="436" y="498" type="line"/>
			<point x="436" y="572" type="line"/>
			<point x="336" y="572" type="line"/>
		</contour>
	</outline>
</glyph>
<glyph name="creativecommons" format="2">
	<unicode hex="1F16D"/>
	<advance width="752"/>
	<outline>
		<contour>
			<point x="376" y="-8" type="curve" smooth="yes"/>
			<point x="554" y="-8"/>
			<point x="708" y="118"/>
			<point x="708" y="326" type="curve" smooth="yes"/>
			<point x="708" y="533"/>
			<point x="554" y="656"/>
			<point x="376" y="656" type="curve" smooth="yes"/>
			<point x="198" y="656"/>
			<point x="44" y="534"/>
			<point x="44" y="326" type="curve" smooth="yes"/>
			<point x="44" y="118"/>
			<point x="198" y="-8"/>
		</contour>
		<contour>
			<point x="376" y="60" type="curve" smooth="yes"/>
			<point x="230" y="60"/>
			<point x="120" y="166"/>
			<point x="120" y="326" type="curve" smooth="yes"/>
			<point x="120" y="486"/>
			<point x="230" y="588"/>
			<point x="376" y="588" type="curve" smooth="yes"/>
			<point x="522" y="588"/>
			<point x="632" y="486"/>
			<point x="632" y="326" type="curve" smooth="yes"/>
			<point x="632" y="166"/>
			<point x="522" y="60"/>
		</contour>
		<contour>
			<point x="280" y="150" type="curve" smooth="yes"/>
			<point x="324" y="150"/>
			<point x="349" y="171"/>
			<point x="370" y="196" type="curve"/>
			<point x="324" y="256" type="line"/>
			<point x="316" y="248"/>
			<point x="310" y="244"/>
			<point x="294" y="244" type="curve" smooth="yes"/>
			<point x="276" y="244"/>
			<point x="260" y="272"/>
			<point x="260" y="324" type="curve" smooth="yes"/>
			<point x="260" y="376"/>
			<point x="274" y="404"/>
			<point x="294" y="404" type="curve" smooth="yes"/>
			<point x="304" y="404"/>
			<point x="308" y="401"/>
			<point x="314" y="394" type="curve"/>
			<point x="370" y="452" type="line"/>
			<point x="354" y="476"/>
			<point x="329" y="498"/>
			<point x="286" y="498" type="curve" smooth="yes"/>
			<point x="214" y="498"/>
			<point x="148" y="436"/>
			<point x="148" y="324" type="curve" smooth="yes"/>
			<point x="148" y="210"/>
			<point x="208" y="150"/>
		</contour>
		<contour>
			<point x="490" y="150" type="curve" smooth="yes"/>
			<point x="534" y="150"/>
			<point x="559" y="171"/>
			<point x="580" y="196" type="curve"/>
			<point x="534" y="256" type="line"/>
			<point x="526" y="248"/>
			<point x="520" y="244"/>
			<point x="504" y="244" type="curve" smooth="yes"/>
			<point x="486" y="244"/>
			<point x="470" y="272"/>
			<point x="470" y="324" type="curve" smooth="yes"/>
			<point x="470" y="376"/>
			<point x="484" y="404"/>
			<point x="504" y="404" type="curve" smooth="yes"/>
			<point x="514" y="404"/>
			<point x="518" y="401"/>
			<point x="524" y="394" type="curve"/>
			<point x="580" y="452" type="line"/>
			<point x="564" y="476"/>
			<point x="539" y="498"/>
			<point x="496" y="498" type="curve" smooth="yes"/>
			<point x="424" y="498"/>
			<point x="358" y="436"/>
			<point x="358" y="324" type="curve" smooth="yes"/>
			<point x="358" y="210"/>
			<point x="418" y="150"/>
		</contour>
	</outline>
</glyph>
<glyph name="AinEgypt.sc" format="2">
	<advance width="354"/>
	<outline>
		<contour>
			<point x="256" y="258" type="curve"/>
			<point x="276" y="331" type="line"/>
			<point x="195" y="337"/>
			<point x="172" y="362"/>
			<point x="172" y="388" type="curve" smooth="yes"/>
			<point x="172" y="396"/>
			<point x="172" y="402"/>
			<point x="172" y="408" type="curve"/>
			<point x="122" y="408" type="line"/>
			<point x="141" y="396"/>
			<point x="174" y="384"/>
			<point x="202" y="384" type="curve" smooth="yes"/>
			<point x="257" y="384"/>
			<point x="298" y="411"/>
			<point x="298" y="465" type="curve" smooth="yes"/>
			<point x="298" y="515"/>
			<point x="258" y="544"/>
			<point x="180" y="544" type="curve" smooth="yes"/>
			<point x="92" y="544"/>
			<point x="36" y="496"/>
			<point x="36" y="414" type="curve" smooth="yes"/>
			<point x="36" y="322"/>
			<point x="94" y="260"/>
		</contour>
	</outline>
</glyph>
<glyph name="Chedescender.sc" format="2">
	<advance width="608"/>
	<outline>
		<contour>
			<point x="436" y="-172" type="line"/>
			<point x="584" y="-172" type="line"/>
			<point x="600" y="24" type="line"/>
			<point x="600" y="142" type="line"/>
			<point x="408" y="142" type="line"/>
			<point x="408" y="0" type="line"/>
			<point x="436" y="0" type="line"/>
		</contour>
		<component base="Che.sc"/>
	</outline>
</glyph>
<glyph name="De.as" format="2">
	<advance width="620"/>
	<outline>
		<contour>
			<point x="172" y="-172" type="line"/>
			<point x="172" y="0" type="line"/>
			<point x="448" y="0" type="line"/>
			<point x="448" y="-172" type="line"/>
			<point x="596" y="-172" type="line"/>
			<point x="612" y="24" type="line"/>
			<point x="612" y="142" type="line"/>
			<point x="8" y="142" type="line"/>
			<point x="8" y="24" type="line"/>
			<point x="24" y="-172" type="line"/>
		</contour>
		<component base="El.as" xOffset="60"/>
	</outline>
</glyph>
<glyph name="Eogonek.ds" format="2">
	<advance width="508"/>
	<outline>
		<contour>
			<point x="290" y="-228" type="curve" smooth="yes"/>
			<point x="330" y="-228"/>
			<point x="380" y="-212"/>
			<point x="410" y="-190" type="curve"/>
			<point x="372" y="-94" type="line"/>
			<point x="362" y="-100"/>
			<point x="346" y="-108"/>
			<point x="330" y="-108" type="curve" smooth="yes"/>
			<point x="304" y="-108"/>
			<point x="288" y="-98"/>
			<point x="288" y="-74" type="curve" smooth="yes"/>
			<point x="288" y="-42"/>
			<point x="326" y="0"/>
			<point x="372" y="0" type="curve" smooth="yes"/>
			<point x="454" y="0" type="line"/>
			<point x="454" y="132" type="line"/>
			<point x="244" y="132" type="line"/>
			<point x="244" y="206" type="line"/>
			<point x="416" y="206" type="line"/>
			<point x="416" y="330" type="line"/>
			<point x="244" y="330" type="line"/>
			<point x="244" y="400" type="line"/>
			<point x="444" y="400" type="line"/>
			<point x="444" y="532" type="line"/>
			<point x="72" y="532" type="line"/>
			<point x="72" y="0" type="line"/>
			<point x="234" y="0" type="line"/>
			<point x="198" y="-20"/>
			<point x="154" y="-66"/>
			<point x="154" y="-126" type="curve" smooth="yes"/>
			<point x="154" y="-190"/>
			<point x="214" y="-228"/>
		</contour>
	</outline>
	<anchor name="aboveUC" x="270" y="562"/>
	<anchor name="belowLC" x="280" y="-222"/>
</glyph>
<glyph name="Eturned.sc" format="2">
	<advance width="508"/>
	<outline>
		<contour>
			<point x="54" y="0" type="line"/>
			<point x="436" y="0" type="line"/>
			<point x="436" y="532" type="line"/>
			<point x="64" y="532" type="line"/>
			<point x="64" y="400" type="line"/>
			<point x="264" y="400" type="line"/>
			<point x="264" y="330" type="line"/>
			<point x="92" y="330" type="line"/>
			<point x="92" y="206" type="line"/>
			<point x="264" y="206" type="line"/>
			<point x="264" y="132" type="line"/>
			<point x="54" y="132" type="line"/>
		</contour>
	</outline>
	<anchor name="aboveUC" x="260" y="562"/>
	<anchor name="belowLC" x="240" y="-22"/>
	<anchor name="ogonekUC" x="240" y="0"/>
</glyph>
<glyph name="Fita.sc" format="2">
	<advance width="626"/>
	<outline>
		<contour>
			<point x="314" y="-12" type="curve" smooth="yes"/>
			<point x="473" y="-12"/>
			<point x="582" y="88"/>
			<point x="582" y="269" type="curve" smooth="yes"/>
			<point x="582" y="450"/>
			<point x="473" y="544"/>
			<point x="314" y="544" type="curve" smooth="yes"/>
			<point x="153" y="544"/>
			<point x="44" y="450"/>
			<point x="44" y="269" type="curve" smooth="yes"/>
			<point x="44" y="88"/>
			<point x="153" y="-12"/>
		</contour>
		<contour>
			<point x="314" y="118" type="curve" smooth="yes"/>
			<point x="248" y="118"/>
			<point x="212" y="172"/>
			<point x="212" y="269" type="curve" smooth="yes"/>
			<point x="212" y="366"/>
			<point x="248" y="414"/>
			<point x="314" y="414" type="curve" smooth="yes"/>
			<point x="378" y="414"/>
			<point x="414" y="366"/>
			<point x="414" y="269" type="curve" smooth="yes"/>
			<point x="414" y="172"/>
			<point x="378" y="118"/>
		</contour>
		<contour>
			<point x="480" y="206" type="line"/>
			<point x="480" y="330" type="line"/>
			<point x="167" y="330" type="line"/>
			<point x="167" y="206" type="line"/>
		</contour>
	</outline>
</glyph>
<glyph name="Ghedescender.sc" format="2">
	<advance width="482"/>
	<outline>
		<contour>
			<point x="162" y="-172" type="line"/>
			<point x="310" y="-172" type="line"/>
			<point x="326" y="24" type="line"/>
			<point x="326" y="142" type="line"/>
			<point x="134" y="142" type="line"/>
			<point x="134" y="0" type="line"/>
			<point x="162" y="0" type="line"/>
		</contour>
		<component base="Ghe.sc"/>
	</outline>
</glyph>
<glyph name="Hadescender.sc" format="2">
	<advance width="568"/>
	<outline>
		<contour>
			<point x="396" y="-172" type="line"/>
			<point x="544" y="-172" type="line"/>
			<point x="560" y="24" type="line"/>
			<point x="560" y="142" type="line"/>
			<point x="368" y="142" type="line"/>
			<point x="368" y="0" type="line"/>
			<point x="396" y="0" type="line"/>
		</contour>
		<component base="Ha.sc"/>
	</outline>
</glyph>
<glyph name="Hard.sc" format="2">
	<advance width="646"/>
	<outline>
		<contour>
			<point x="174" y="0" type="line"/>
			<point x="384" y="0" type="line" smooth="yes"/>
			<point x="504" y="0"/>
			<point x="612" y="42"/>
			<point x="612" y="184" type="curve" smooth="yes"/>
			<point x="612" y="314"/>
			<point x="504" y="362"/>
			<point x="384" y="362" type="curve" smooth="yes"/>
			<point x="346" y="362" type="line"/>
			<point x="346" y="532" type="line"/>
			<point x="24" y="532" type="line"/>
			<point x="24" y="392" type="line"/>
			<point x="174" y="392" type="line"/>
		</contour>
		<contour>
			<point x="346" y="134" type="line"/>
			<point x="346" y="246" type="line"/>
			<point x="376" y="246" type="line" smooth="yes"/>
			<point x="424" y="246"/>
			<point x="450" y="230"/>
			<point x="450" y="190" type="curve" smooth="yes"/>
			<point x="450" y="150"/>
			<point x="424" y="134"/>
			<point x="376" y="134" type="curve" smooth="yes"/>
		</contour>
	</outline>
</glyph>
<glyph name="Ieukran.sc" format="2">
	<advance width="521"/>
	<outline>
		<contour>
			<point x="317" y="-12" type="curve" smooth="yes"/>
			<point x="389" y="-12"/>
			<point x="459" y="13"/>
			<point x="508" y="66" type="curve"/>
			<point x="416" y="166" type="line"/>
			<point x="395" y="146"/>
			<point x="365" y="128"/>
			<point x="325" y="128" type="curve" smooth="yes"/>
			<point x="254" y="128"/>
			<point x="212" y="168"/>
			<point x="212" y="268" type="curve" smooth="yes"/>
			<point x="212" y="360"/>
			<point x="264" y="404"/>
			<point x="326" y="404" type="curve" smooth="yes"/>
			<point x="360" y="404"/>
			<point x="384" y="393"/>
			<point x="412" y="370" type="curve"/>
			<point x="504" y="472" type="line"/>
			<point x="462" y="512"/>
			<point x="398" y="544"/>
			<point x="327" y="544" type="curve" smooth="yes"/>
			<point x="178" y="544"/>
			<point x="44" y="450"/>
			<point x="44" y="262" type="curve" smooth="yes"/>
			<point x="44" y="68"/>
			<point x="170" y="-12"/>
		</contour>
		<contour>
			<point x="144" y="206" type="line"/>
			<point x="378" y="206" type="line"/>
			<point x="378" y="330" type="line"/>
			<point x="144" y="330" type="line"/>
		</contour>
	</outline>
</glyph>
<glyph name="Lambda.sc" format="2">
	<advance width="506"/>
	<outline>
		<contour>
			<point x="-10" y="0" type="line"/>
			<point x="162" y="0" type="line"/>
			<point x="210" y="212" type="line" smooth="yes"/>
			<point x="222" y="266"/>
			<point x="233" y="323"/>
			<point x="247" y="378" type="curve"/>
			<point x="251" y="378" type="line"/>
			<point x="265" y="323"/>
			<point x="276" y="266"/>
			<point x="288" y="212" type="curve" smooth="yes"/>
			<point x="338" y="0" type="line"/>
			<point x="516" y="0" type="line"/>
			<point x="356" y="532" type="line"/>
			<point x="150" y="532" type="line"/>
		</contour>
	</outline>
</glyph>
<glyph name="Lambdabar" format="2">
	<advance width="544"/>
	<outline>
		<contour>
			<point x="14" y="464" type="line"/>
			<point x="530" y="464" type="line"/>
			<point x="530" y="576" type="line"/>
			<point x="108" y="576" type="line"/>
			<point x="14" y="570" type="line"/>
		</contour>
		<component base="Lambda.latin"/>
	</outline>
	<anchor name="aboverightUC" x="460" y="672"/>
	<anchor name="aboveUC" x="270" y="672"/>
	<anchor name="belowLC" x="270" y="-22"/>
</glyph>
<glyph name="Nje.sc" format="2">
	<advance width="826"/>
	<outline>
		<contour>
			<point x="72" y="0" type="line"/>
			<point x="244" y="0" type="line"/>
			<point x="244" y="196" type="line"/>
			<point x="372" y="196" type="line"/>
			<point x="372" y="0" type="line"/>
			<point x="560" y="0" type="line" smooth="yes"/>
			<point x="683" y="0"/>
			<point x="792" y="42"/>
			<point x="792" y="184" type="curve" smooth="yes"/>
			<point x="792" y="314"/>
			<point x="693" y="362"/>
			<point x="564" y="362" type="curve" smooth="yes"/>
			<point x="544" y="362" type="line"/>
			<point x="544" y="532" type="line"/>
			<point x="372" y="532" type="line"/>
			<point x="372" y="344" type="line"/>
			<point x="244" y="344" type="line"/>
			<point x="244" y="532" type="line"/>
			<point x="72" y="532" type="line"/>
		</contour>
		<contour>
			<point x="544" y="134" type="line"/>
			<point x="544" y="246" type="line"/>
			<point x="554" y="246" type="line" smooth="yes"/>
			<point x="604" y="246"/>
			<point x="630" y="230"/>
			<point x="630" y="190" type="curve" smooth="yes"/>
			<point x="630" y="150"/>
			<point x="598" y="134"/>
			<point x="554" y="134" type="curve" smooth="yes"/>
		</contour>
	</outline>
</glyph>
<glyph name="Oopen.sc" format="2">
	<advance width="526"/>
	<outline>
		<contour>
			<point x="200" y="-12" type="curve" smooth="yes"/>
			<point x="346" y="-12"/>
			<point x="482" y="62"/>
			<point x="482" y="272" type="curve" smooth="yes"/>
			<point x="482" y="452"/>
			<point x="352" y="544"/>
			<point x="212" y="544" type="curve" smooth="yes"/>
			<point x="142" y="544"/>
			<point x="74" y="520"/>
			<point x="24" y="470" type="curve"/>
			<point x="110" y="366" type="line"/>
			<point x="132" y="386"/>
			<point x="166" y="404"/>
			<point x="204" y="404" type="curve" smooth="yes"/>
			<point x="264" y="404"/>
			<point x="308" y="356"/>
			<point x="308" y="266" type="curve" smooth="yes"/>
			<point x="308" y="152"/>
			<point x="257" y="128"/>
			<point x="200" y="128" type="curve" smooth="yes"/>
			<point x="162" y="128"/>
			<point x="138" y="140"/>
			<point x="110" y="162" type="curve"/>
			<point x="18" y="60" type="line"/>
			<point x="60" y="20"/>
			<point x="124" y="-12"/>
		</contour>
	</outline>
	<anchor name="aboveUC" x="230" y="562"/>
	<anchor name="baseLC" x="230" y="0"/>
	<anchor name="belowLC" x="230" y="-22"/>
	<anchor name="ogonekUC" x="230" y="0"/>
</glyph>
<glyph name="Q.sc" format="2">
	<advance width="624"/>
	<outline>
		<contour>
			<point x="312" y="-12" type="curve" smooth="yes"/>
			<point x="471" y="-12"/>
			<point x="580" y="91"/>
			<point x="580" y="269" type="curve" smooth="yes"/>
			<point x="580" y="446"/>
			<point x="471" y="544"/>
			<point x="312" y="544" type="curve" smooth="yes"/>
			<point x="151" y="544"/>
			<point x="42" y="447"/>
			<point x="42" y="269" type="curve" smooth="yes"/>
			<point x="42" y="91"/>
			<point x="151" y="-12"/>
		</contour>
		<contour>
			<point x="312" y="118" type="curve" smooth="yes"/>
			<point x="252" y="118"/>
			<point x="218" y="172"/>
			<point x="218" y="269" type="curve" smooth="yes"/>
			<point x="218" y="356"/>
			<point x="252" y="404"/>
			<point x="312" y="404" type="curve" smooth="yes"/>
			<point x="370" y="404"/>
			<point x="404" y="356"/>
			<point x="404" y="269" type="curve" smooth="yes"/>
			<point x="404" y="172"/>
			<point x="370" y="118"/>
		</contour>
		<contour>
			<point x="496" y="-178" type="curve" smooth="yes"/>
			<point x="546" y="-178"/>
			<point x="585" y="-168"/>
			<point x="610" y="-154" type="curve"/>
			<point x="580" y="-36" type="line"/>
			<point x="561" y="-42"/>
			<point x="540" y="-46"/>
			<point x="516" y="-46" type="curve" smooth="yes"/>
			<point x="462" y="-46"/>
			<point x="413" y="-38"/>
			<point x="393" y="24" type="curve"/>
			<point x="225" y="6" type="line"/>
			<point x="269" y="-103"/>
			<point x="350" y="-178"/>
		</contour>
	</outline>
	<anchor name="aboveUC" x="312" y="562"/>
	<anchor name="belowLC" x="300" y="-182"/>
</glyph>
<glyph name="R.sc" format="2">
	<advance width="576"/>
	<outline>
		<contour>
			<point x="72" y="0" type="line"/>
			<point x="244" y="0" type="line"/>
			<point x="244" y="162" type="line"/>
			<point x="295" y="162" type="line" smooth="yes"/>
			<point x="418" y="162"/>
			<point x="526" y="227"/>
			<point x="526" y="352" type="curve" smooth="yes"/>
			<point x="526" y="493"/>
			<point x="416" y="532"/>
			<point x="293" y="532" type="curve" smooth="yes"/>
			<point x="72" y="532" type="line"/>
		</contour>
		<contour>
			<point x="244" y="278" type="line"/>
			<point x="244" y="398" type="line"/>
			<point x="283" y="398" type="line" smooth="yes"/>
			<point x="334" y="398"/>
			<point x="364" y="382"/>
			<point x="364" y="341" type="curve" smooth="yes"/>
			<point x="364" y="304"/>
			<point x="337" y="278"/>
			<point x="285" y="278" type="curve" smooth="yes"/>
		</contour>
		<contour>
			<point x="380" y="0" type="line"/>
			<point x="560" y="0" type="line"/>
			<point x="411" y="252" type="line"/>
			<point x="269" y="205" type="line"/>
		</contour>
	</outline>
	<anchor name="aboveUC" x="306" y="562"/>
	<anchor name="belowLC" x="312" y="-22"/>
</glyph>
<glyph name="Schwa.sc" format="2">
	<advance width="612"/>
	<outline>
		<contour>
			<point x="308" y="-12" type="curve" smooth="yes"/>
			<point x="460" y="-12"/>
			<point x="568" y="89"/>
			<point x="568" y="266" type="curve" smooth="yes"/>
			<point x="568" y="443"/>
			<point x="457" y="544"/>
			<point x="308" y="544" type="curve" smooth="yes"/>
			<point x="222" y="544"/>
			<point x="154" y="516"/>
			<point x="102" y="472" type="curve"/>
			<point x="176" y="368" type="line"/>
			<point x="208" y="392"/>
			<point x="242" y="410"/>
			<point x="294" y="410" type="curve" smooth="yes"/>
			<point x="362" y="410"/>
			<point x="400" y="366"/>
			<point x="400" y="272" type="curve" smooth="yes"/>
			<point x="400" y="156"/>
			<point x="364" y="120"/>
			<point x="306" y="120" type="curve" smooth="yes"/>
			<point x="254" y="120"/>
			<point x="216" y="142"/>
			<point x="212" y="204" type="curve"/>
			<point x="444" y="204" type="line"/>
			<point x="444" y="320" type="line"/>
			<point x="54" y="320" type="line"/>
			<point x="50" y="300"/>
			<point x="48" y="282"/>
			<point x="48" y="264" type="curve" smooth="yes"/>
			<point x="48" y="86"/>
			<point x="156" y="-12"/>
		</contour>
	</outline>
	<anchor name="aboveUC" x="320" y="562"/>
	<anchor name="belowLC" x="320" y="-22"/>
</glyph>
<glyph name="Sha.sc" format="2">
	<advance width="842"/>
	<outline>
		<contour>
			<point x="72" y="0" type="line"/>
			<point x="770" y="0" type="line"/>
			<point x="770" y="532" type="line"/>
			<point x="608" y="532" type="line"/>
			<point x="608" y="142" type="line"/>
			<point x="502" y="142" type="line"/>
			<point x="502" y="532" type="line"/>
			<point x="340" y="532" type="line"/>
			<point x="340" y="142" type="line"/>
			<point x="234" y="142" type="line"/>
			<point x="234" y="532" type="line"/>
			<point x="72" y="532" type="line"/>
		</contour>
	</outline>
</glyph>
<glyph name="Ustraightstroke.sc" format="2">
	<advance width="488"/>
	<outline>
		<contour>
			<point x="38" y="138" type="line"/>
			<point x="450" y="138" type="line"/>
			<point x="450" y="250" type="line"/>
			<point x="134" y="250" type="line"/>
			<point x="38" y="244" type="line"/>
		</contour>
		<component base="Ustraight.sc"/>
	</outline>
	<anchor name="aboveUC" x="240" y="562"/>
</glyph>
<glyph name="Yu.sc" format="2">
	<advance width="867"/>
	<outline>
		<contour>
			<point x="72" y="0" type="line"/>
			<point x="244" y="0" type="line"/>
			<point x="244" y="196" type="line"/>
			<point x="409" y="196" type="line"/>
			<point x="409" y="344" type="line"/>
			<point x="244" y="344" type="line"/>
			<point x="244" y="532" type="line"/>
			<point x="72" y="532" type="line"/>
		</contour>
		<contour>
			<point x="566" y="-12" type="curve" smooth="yes"/>
			<point x="720" y="-12"/>
			<point x="824" y="91"/>
			<point x="824" y="270" type="curve" smooth="yes"/>
			<point x="824" y="446"/>
			<point x="720" y="544"/>
			<point x="566" y="544" type="curve" smooth="yes"/>
			<point x="408" y="544"/>
			<point x="310" y="447"/>
			<point x="310" y="270" type="curve" smooth="yes"/>
			<point x="310" y="91"/>
			<point x="408" y="-12"/>
		</contour>
		<contour>
			<point x="564" y="128" type="curve" smooth="yes"/>
			<point x="510" y="128"/>
			<point x="478" y="178"/>
			<point x="478" y="270" type="curve" smooth="yes"/>
			<point x="478" y="360"/>
			<point x="510" y="404"/>
			<point x="564" y="404" type="curve" smooth="yes"/>
			<point x="618" y="404"/>
			<point x="650" y="360"/>
			<point x="650" y="270" type="curve" smooth="yes"/>
			<point x="650" y="178"/>
			<point x="618" y="128"/>
		</contour>
	</outline>
	<anchor name="aboveUC" x="430" y="562"/>
</glyph>
<glyph name="Z.sc" format="2">
	<advance width="482"/>
	<outline>
		<contour>
			<point x="32" y="0" type="line"/>
			<point x="453" y="0" type="line"/>
			<point x="453" y="140" type="line"/>
			<point x="239" y="140" type="line"/>
			<point x="450" y="430" type="line"/>
			<point x="450" y="532" type="line"/>
			<point x="54" y="532" type="line"/>
			<point x="54" y="392" type="line"/>
			<point x="244" y="392" type="line"/>
			<point x="32" y="102" type="line"/>
		</contour>
	</outline>
	<anchor name="aboveUC" x="258" y="562"/>
	<anchor name="belowLC" x="252" y="-22"/>
</glyph>
<glyph name="Z.sups" format="2">
	<advance width="366"/>
	<outline>
		<contour>
			<point x="21" y="368" type="line"/>
			<point x="346" y="368" type="line"/>
			<point x="346" y="467" type="line"/>
			<point x="169" y="467" type="line"/>
			<point x="345" y="728" type="line"/>
			<point x="345" y="800" type="line"/>
			<point x="38" y="800" type="line"/>
			<point x="38" y="701" type="line"/>
			<point x="197" y="701" type="line"/>
			<point x="21" y="440" type="line"/>
		</contour>
	</outline>
</glyph>
<glyph name="Ze.sc" format="2">
	<advance width="506"/>
	<outline>
		<contour>
			<point x="242" y="-12" type="curve" smooth="yes"/>
			<point x="376" y="-12"/>
			<point x="476" y="46"/>
			<point x="476" y="160" type="curve" smooth="yes"/>
			<point x="476" y="216"/>
			<point x="438" y="262"/>
			<point x="388" y="278" type="curve"/>
			<point x="388" y="282" type="line"/>
			<point x="430" y="304"/>
			<point x="452" y="346"/>
			<point x="452" y="392" type="curve" smooth="yes"/>
			<point x="452" y="484"/>
			<point x="384" y="544"/>
			<point x="236" y="544" type="curve" smooth="yes"/>
			<point x="168" y="544"/>
			<point x="102" y="522"/>
			<point x="44" y="476" type="curve"/>
			<point x="120" y="374" type="line"/>
			<point x="159" y="407"/>
			<point x="198" y="414"/>
			<point x="228" y="414" type="curve" smooth="yes"/>
			<point x="262" y="414"/>
			<point x="286" y="396"/>
			<point x="286" y="372" type="curve" smooth="yes"/>
			<point x="286" y="340"/>
			<point x="268" y="324"/>
			<point x="230" y="324" type="curve" smooth="yes"/>
			<point x="164" y="324" type="line"/>
			<point x="164" y="218" type="line"/>
			<point x="246" y="218" type="line" smooth="yes"/>
			<point x="292" y="218"/>
			<point x="310" y="200"/>
			<point x="310" y="168" type="curve" smooth="yes"/>
			<point x="310" y="138"/>
			<point x="284" y="118"/>
			<point x="242" y="118" type="curve" smooth="yes"/>
			<point x="192" y="118"/>
			<point x="146" y="136"/>
			<point x="108" y="166" type="curve"/>
			<point x="36" y="62" type="line"/>
			<point x="100" y="10"/>
			<point x="166" y="-12"/>
		</contour>
	</outline>
</glyph>
<glyph name="aogonek.a" format="2">
	<advance width="580"/>
	<outline>
		<contour>
			<point x="446" y="-220" type="curve" smooth="yes"/>
			<point x="484" y="-220"/>
			<point x="532" y="-206"/>
			<point x="562" y="-184" type="curve"/>
			<point x="528" y="-96" type="line"/>
			<point x="516" y="-102"/>
			<point x="500" y="-108"/>
			<point x="482" y="-108" type="curve" smooth="yes"/>
			<point x="464" y="-108"/>
			<point x="444" y="-98"/>
			<point x="444" y="-76" type="curve" smooth="yes"/>
			<point x="444" y="-49"/>
			<point x="462" y="-14"/>
			<point x="522" y="0" type="curve"/>
			<point x="522" y="500" type="line"/>
			<point x="388" y="500" type="line"/>
			<point x="374" y="450" type="line"/>
			<point x="370" y="450" type="line"/>
			<point x="332" y="494"/>
			<point x="292" y="512"/>
			<point x="244" y="512" type="curve" smooth="yes"/>
			<point x="142" y="512"/>
			<point x="36" y="414"/>
			<point x="36" y="250" type="curve" smooth="yes"/>
			<point x="36" y="88"/>
			<point x="116" y="-12"/>
			<point x="240" y="-12" type="curve" smooth="yes"/>
			<point x="284" y="-12"/>
			<point x="332" y="12"/>
			<point x="366" y="46" type="curve"/>
			<point x="370" y="46" type="line"/>
			<point x="384" y="-4" type="line"/>
			<point x="360" y="-18"/>
			<point x="320" y="-58"/>
			<point x="320" y="-116" type="curve" smooth="yes"/>
			<point x="320" y="-186"/>
			<point x="376" y="-220"/>
		</contour>
		<contour>
			<point x="286" y="128" type="curve" smooth="yes"/>
			<point x="240" y="128"/>
			<point x="212" y="162"/>
			<point x="212" y="252" type="curve" smooth="yes"/>
			<point x="212" y="340"/>
			<point x="246" y="372"/>
			<point x="282" y="372" type="curve" smooth="yes"/>
			<point x="304" y="372"/>
			<point x="330" y="366"/>
			<point x="350" y="348" type="curve"/>
			<point x="350" y="164" type="line"/>
			<point x="332" y="136"/>
			<point x="312" y="128"/>
		</contour>
	</outline>
	<anchor name="aboveLC" x="306" y="522"/>
</glyph>
<glyph name="breveinvertedcmb.cap" format="2">
	<outline>
		<contour>
			<point x="-78" y="690" type="line"/>
			<point x="-69" y="729"/>
			<point x="-40" y="748"/>
			<point x="0" y="748" type="curve" smooth="yes"/>
			<point x="40" y="748"/>
			<point x="69" y="729"/>
			<point x="78" y="690" type="curve"/>
			<point x="170" y="706" type="line"/>
			<point x="160" y="802"/>
			<point x="102" y="846"/>
			<point x="0" y="846" type="curve" smooth="yes"/>
			<point x="-102" y="846"/>
			<point x="-160" y="802"/>
			<point x="-170" y="706" type="curve"/>
		</contour>
	</outline>
	<anchor name="_aboveUC" x="0" y="672"/>
</glyph>
<glyph name="candrabinducmb.cap" format="2">
	<outline>
		<contour>
			<point x="0" y="694" type="curve" smooth="yes"/>
			<point x="112" y="694"/>
			<point x="178" y="738"/>
			<point x="190" y="834" type="curve"/>
			<point x="108" y="850" type="line"/>
			<point x="94" y="802"/>
			<point x="52" y="782"/>
			<point x="0" y="782" type="curve" smooth="yes"/>
			<point x="-52" y="782"/>
			<point x="-94" y="802"/>
			<point x="-108" y="850" type="curve"/>
			<point x="-190" y="834" type="line"/>
			<point x="-176" y="738"/>
			<point x="-112" y="694"/>
		</contour>
		<contour>
			<point x="0" y="846" type="curve" smooth="yes"/>
			<point x="48" y="846"/>
			<point x="84" y="876"/>
			<point x="84" y="922" type="curve" smooth="yes"/>
			<point x="84" y="967"/>
			<point x="48" y="1000"/>
			<point x="0" y="1000" type="curve" smooth="yes"/>
			<point x="-48" y="1000"/>
			<point x="-84" y="967"/>
			<point x="-84" y="922" type="curve" smooth="yes"/>
			<point x="-84" y="876"/>
			<point x="-48" y="846"/>
		</contour>
	</outline>
	<anchor name="_aboveUC" x="0" y="672"/>
</glyph>
<glyph name="caroncomma.cap" format="2">
	<outline>
		<contour>
			<point x="-80" y="700" type="line"/>
			<point x="80" y="700" type="line"/>
			<point x="200" y="830" type="line"/>
			<point x="80" y="830" type="line"/>
			<point x="2" y="778" type="line"/>
			<point x="-2" y="778" type="line"/>
			<point x="-80" y="830" type="line"/>
			<point x="-200" y="830" type="line"/>
		</contour>
		<component base="commaabovecmb.cap" xScale="0.9" yScale="0.9" yOffset="180"/>
	</outline>
	<anchor name="_aboveUC" x="0" y="672"/>
</glyph>
<glyph name="circumflexacute" format="2">
	<outline>
		<contour>
			<point x="-190" y="570" type="line"/>
			<point x="-70" y="570" type="line"/>
			<point x="-2" y="646" type="line"/>
			<point x="2" y="646" type="line"/>
			<point x="70" y="570" type="line"/>
			<point x="190" y="570" type="line"/>
			<point x="80" y="740" type="line"/>
			<point x="-80" y="740" type="line"/>
		</contour>
		<contour>
			<point x="130" y="670" type="line"/>
			<point x="210" y="670" type="line"/>
			<point x="300" y="802" type="line"/>
			<point x="290" y="820" type="line"/>
			<point x="170" y="820" type="line"/>
		</contour>
	</outline>
	<anchor name="_aboveLC" x="0" y="522"/>
</glyph>
<glyph name="comma.dnom" format="2">
	<advance width="220"/>
	<outline>
		<contour>
			<point x="54" y="-136" type="line"/>
			<point x="142" y="-112"/>
			<point x="190" y="-54"/>
			<point x="190" y="28" type="curve" smooth="yes"/>
			<point x="190" y="96"/>
			<point x="162" y="134"/>
			<point x="112" y="134" type="curve" smooth="yes"/>
			<point x="72" y="134"/>
			<point x="40" y="106"/>
			<point x="40" y="68" type="curve" smooth="yes"/>
			<point x="40" y="26"/>
			<point x="73" y="2"/>
			<point x="109" y="2" type="curve" smooth="yes"/>
			<point x="124" y="2"/>
			<point x="138" y="10"/>
			<point x="148" y="18" type="curve"/>
			<point x="114" y="80" type="line"/>
			<point x="112" y="4" type="line"/>
			<point x="113" y="-36"/>
			<point x="85" y="-57"/>
			<point x="30" y="-74" type="curve"/>
		</contour>
	</outline>
</glyph>
<glyph name="eacute.sups" format="2">
	<advance width="350"/>
	<outline>
		<contour>
			<point x="130" y="750" type="line"/>
			<point x="220" y="750" type="line"/>
			<point x="330" y="862" type="line"/>
			<point x="320" y="880" type="line"/>
			<point x="190" y="880" type="line"/>
		</contour>
		<component base="e.sups"/>
	</outline>
</glyph>
<glyph name="egrave.sups" format="2">
	<advance width="350"/>
	<outline>
		<contour>
			<point x="150" y="750" type="line"/>
			<point x="240" y="750" type="line"/>
			<point x="180" y="880" type="line"/>
			<point x="50" y="880" type="line"/>
			<point x="40" y="862" type="line"/>
		</contour>
		<component base="e.sups"/>
	</outline>
</glyph>
<glyph name="eight.cap" format="2">
	<advance width="540"/>
	<outline>
		<contour>
			<point x="268" y="-12" type="curve" smooth="yes"/>
			<point x="407" y="-12"/>
			<point x="500" y="64"/>
			<point x="500" y="166" type="curve" smooth="yes"/>
			<point x="500" y="255"/>
			<point x="454" y="310"/>
			<point x="391" y="343" type="curve"/>
			<point x="391" y="347" type="line"/>
			<point x="437" y="377"/>
			<point x="472" y="427"/>
			<point x="472" y="488" type="curve" smooth="yes"/>
			<point x="472" y="595"/>
			<point x="392" y="662"/>
			<point x="274" y="662" type="curve" smooth="yes"/>
			<point x="150" y="662"/>
			<point x="62" y="595"/>
			<point x="62" y="484" type="curve" smooth="yes"/>
			<point x="62" y="415"/>
			<point x="95" y="365"/>
			<point x="146" y="326" type="curve"/>
			<point x="146" y="322" type="line"/>
			<point x="85" y="290"/>
			<point x="42" y="241"/>
			<point x="42" y="162" type="curve" smooth="yes"/>
			<point x="42" y="58"/>
			<point x="139" y="-12"/>
		</contour>
		<contour>
			<point x="306" y="388" type="curve"/>
			<point x="245" y="412"/>
			<point x="212" y="438"/>
			<point x="212" y="484" type="curve" smooth="yes"/>
			<point x="212" y="527"/>
			<point x="239" y="544"/>
			<point x="270" y="544" type="curve" smooth="yes"/>
			<point x="310" y="544"/>
			<point x="334" y="519"/>
			<point x="334" y="476" type="curve" smooth="yes"/>
			<point x="334" y="446"/>
			<point x="326" y="416"/>
		</contour>
		<contour>
			<point x="272" y="106" type="curve" smooth="yes"/>
			<point x="228" y="106"/>
			<point x="189" y="132"/>
			<point x="189" y="182" type="curve" smooth="yes"/>
			<point x="189" y="218"/>
			<point x="202" y="255"/>
			<point x="222" y="278" type="curve"/>
			<point x="298" y="245"/>
			<point x="341" y="223"/>
			<point x="341" y="172" type="curve" smooth="yes"/>
			<point x="341" y="124"/>
			<point x="310" y="106"/>
		</contour>
	</outline>
</glyph>
<glyph name="emdash.sc" format="2">
	<advance width="700"/>
	<outline>
		<contour>
			<point x="44" y="216" type="line"/>
			<point x="656" y="216" type="line"/>
			<point x="656" y="324" type="line"/>
			<point x="44" y="324" type="line"/>
		</contour>
	</outline>
</glyph>
<glyph name="eopenogonek" format="2">
	<advance width="450"/>
	<outline>
		<contour>
			<point x="262" y="-220" type="curve" smooth="yes"/>
			<point x="300" y="-220"/>
			<point x="348" y="-206"/>
			<point x="378" y="-184" type="curve"/>
			<point x="344" y="-96" type="line"/>
			<point x="332" y="-102"/>
			<point x="316" y="-108"/>
			<point x="298" y="-108" type="curve" smooth="yes"/>
			<point x="280" y="-108"/>
			<point x="260" y="-98"/>
			<point x="260" y="-76" type="curve" smooth="yes"/>
			<point x="260" y="-46"/>
			<point x="278" y="-20"/>
			<point x="326" y="-8" type="curve" smooth="yes"/>
			<point x="366" y="2"/>
			<point x="400" y="14"/>
			<point x="434" y="42" type="curve"/>
			<point x="378" y="144" type="line"/>
			<point x="344" y="126"/>
			<point x="308" y="118"/>
			<point x="282" y="118" type="curve" smooth="yes"/>
			<point x="232" y="118"/>
			<point x="202" y="132"/>
			<point x="202" y="160" type="curve" smooth="yes"/>
			<point x="202" y="186"/>
			<point x="218" y="198"/>
			<point x="260" y="198" type="curve" smooth="yes"/>
			<point x="338" y="198" type="line"/>
			<point x="338" y="310" type="line"/>
			<point x="276" y="310" type="line" smooth="yes"/>
			<point x="244" y="310"/>
			<point x="224" y="319"/>
			<point x="224" y="344" type="curve" smooth="yes"/>
			<point x="224" y="365"/>
			<point x="242" y="382"/>
			<point x="278" y="382" type="curve" smooth="yes"/>
			<point x="312" y="382"/>
			<point x="338" y="378"/>
			<point x="370" y="362" type="curve"/>
			<point x="430" y="466" type="line"/>
			<point x="384" y="496"/>
			<point x="324" y="512"/>
			<point x="262" y="512" type="curve" smooth="yes"/>
			<point x="152" y="512"/>
			<point x="56" y="466"/>
			<point x="56" y="366" type="curve" smooth="yes"/>
			<point x="56" y="328"/>
			<point x="80" y="282"/>
			<point x="136" y="266" type="curve"/>
			<point x="136" y="262" type="line"/>
			<point x="74" y="246"/>
			<point x="34" y="206"/>
			<point x="34" y="134" type="curve" smooth="yes"/>
			<point x="34" y="41"/>
			<point x="133" y="-12"/>
			<point x="264" y="-12" type="curve"/>
			<point x="206" y="2" type="line"/>
			<point x="172" y="-22"/>
			<point x="136" y="-64"/>
			<point x="136" y="-116" type="curve" smooth="yes"/>
			<point x="136" y="-186"/>
			<point x="192" y="-220"/>
		</contour>
	</outline>
	<anchor name="aboveLC" x="250" y="522"/>
</glyph>
<glyph name="four.tnum" format="2">
	<advance width="540"/>
	<outline>
		<contour>
			<point x="290" y="-80" type="line"/>
			<point x="450" y="-80" type="line"/>
			<point x="450" y="580" type="line"/>
			<point x="236" y="580" type="line"/>
			<point x="20" y="198" type="line"/>
			<point x="20" y="78" type="line"/>
			<point x="518" y="78" type="line"/>
			<point x="518" y="208" type="line"/>
			<point x="182" y="208" type="line"/>
			<point x="240" y="322" type="line"/>
			<point x="258" y="360"/>
			<point x="276" y="402"/>
			<point x="292" y="440" type="curve"/>
			<point x="296" y="440" type="line"/>
			<point x="294" y="397"/>
			<point x="290" y="333"/>
			<point x="290" y="290" type="curve" smooth="yes"/>
		</contour>
	</outline>
</glyph>
<glyph name="haxclam" format="2">
	<advance width="360"/>
	<outline>
		<contour>
			<point x="124" y="244" type="line"/>
			<point x="236" y="244" type="line"/>
			<point x="260" y="522" type="line"/>
			<point x="266" y="670" type="line"/>
			<point x="94" y="670" type="line"/>
			<point x="100" y="522" type="line"/>
		</contour>
		<component base="hariod"/>
	</outline>
</glyph>
<glyph name="hyphen.sups" format="2">
	<advance width="257"/>
	<outline>
		<contour>
			<point x="44" y="526" type="line"/>
			<point x="214" y="526" type="line"/>
			<point x="214" y="608" type="line"/>
			<point x="44" y="608" type="line"/>
		</contour>
	</outline>
</glyph>
<glyph name="iogonek.x" format="2">
	<advance width="288"/>
	<outline>
		<contour>
			<point x="158" y="-220" type="curve" smooth="yes"/>
			<point x="196" y="-220"/>
			<point x="244" y="-206"/>
			<point x="274" y="-184" type="curve"/>
			<point x="240" y="-96" type="line"/>
			<point x="228" y="-102"/>
			<point x="212" y="-108"/>
			<point x="194" y="-108" type="curve" smooth="yes"/>
			<point x="176" y="-108"/>
			<point x="156" y="-98"/>
			<point x="156" y="-76" type="curve" smooth="yes"/>
			<point x="156" y="-48"/>
			<point x="172" y="-16"/>
			<point x="230" y="0" type="curve"/>
			<point x="230" y="500" type="line"/>
			<point x="58" y="500" type="line"/>
			<point x="58" y="0" type="line"/>
			<point x="98" y="0" type="line"/>
			<point x="74" y="-16"/>
			<point x="32" y="-58"/>
			<point x="32" y="-116" type="curve" smooth="yes"/>
			<point x="32" y="-186"/>
			<point x="88" y="-220"/>
		</contour>
	</outline>
	<anchor name="aboveLC" x="144" y="522"/>
</glyph>
<glyph name="ka.b" format="2">
	<advance width="564"/>
	<outline>
		<contour>
			<point x="58" y="0" type="line"/>
			<point x="230" y="0" type="line"/>
			<point x="230" y="190" type="line"/>
			<point x="266" y="190" type="line"/>
			<point x="372" y="0" type="line"/>
			<point x="560" y="0" type="line"/>
			<point x="392" y="262" type="line"/>
			<point x="412" y="306" type="line" smooth="yes"/>
			<point x="429" y="344"/>
			<point x="448" y="350"/>
			<point x="472" y="350" type="curve" smooth="yes"/>
			<point x="479" y="350"/>
			<point x="486" y="348"/>
			<point x="492" y="346" type="curve"/>
			<point x="518" y="504" type="line"/>
			<point x="504" y="510"/>
			<point x="490" y="512"/>
			<point x="474" y="512" type="curve" smooth="yes"/>
			<point x="396" y="512"/>
			<point x="348" y="492"/>
			<point x="306" y="408" type="curve" smooth="yes"/>
			<point x="264" y="324" type="line"/>
			<point x="230" y="324" type="line"/>
			<point x="230" y="696" type="line"/>
			<point x="58" y="696" type="line"/>
		</contour>
	</outline>
</glyph>
<glyph name="l.a" format="2">
	<advance width="288"/>
	<outline>
		<contour>
			<point x="58" y="0" type="line"/>
			<point x="230" y="0" type="line"/>
			<point x="230" y="696" type="line"/>
			<point x="58" y="696" type="line"/>
		</contour>
	</outline>
	<anchor name="aboveUC" x="144" y="722"/>
	<anchor name="belowLC" x="144" y="-22"/>
	<anchor name="center" x="144" y="360"/>
</glyph>
<glyph name="nine.sc" format="2">
	<advance width="525"/>
	<outline>
		<contour>
			<point x="236" y="-12" type="curve" smooth="yes"/>
			<point x="363" y="-12"/>
			<point x="480" y="83"/>
			<point x="480" y="272" type="curve" smooth="yes"/>
			<point x="480" y="474"/>
			<point x="360" y="545"/>
			<point x="248" y="545" type="curve" smooth="yes"/>
			<point x="134" y="545"/>
			<point x="41" y="477"/>
			<point x="41" y="359" type="curve" smooth="yes"/>
			<point x="41" y="242"/>
			<point x="123" y="194"/>
			<point x="217" y="194" type="curve" smooth="yes"/>
			<point x="256" y="194"/>
			<point x="306" y="213"/>
			<point x="332" y="250" type="curve"/>
			<point x="324" y="353" type="line"/>
			<point x="307" y="321"/>
			<point x="277" y="306"/>
			<point x="253" y="306" type="curve" smooth="yes"/>
			<point x="226" y="306"/>
			<point x="196" y="315"/>
			<point x="196" y="362" type="curve" smooth="yes"/>
			<point x="196" y="407"/>
			<point x="226" y="420"/>
			<point x="249" y="420" type="curve" smooth="yes"/>
			<point x="280" y="420"/>
			<point x="327" y="406"/>
			<point x="327" y="272" type="curve" smooth="yes"/>
			<point x="327" y="159"/>
			<point x="284" y="121"/>
			<point x="229" y="121" type="curve" smooth="yes"/>
			<point x="191" y="121"/>
			<point x="154" y="142"/>
			<point x="136" y="158" type="curve"/>
			<point x="48" y="59" type="line"/>
			<point x="87" y="22"/>
			<point x="150" y="-12"/>
		</contour>
	</outline>
</glyph>
<glyph name="period.dnom" format="2">
	<advance width="220"/>
	<outline>
		<contour>
			<point x="110" y="-8" type="curve" smooth="yes"/>
			<point x="150" y="-8"/>
			<point x="180" y="22"/>
			<point x="180" y="62" type="curve" smooth="yes"/>
			<point x="180" y="102"/>
			<point x="150" y="134"/>
			<point x="110" y="134" type="curve" smooth="yes"/>
			<point x="70" y="134"/>
			<point x="40" y="102"/>
			<point x="40" y="62" type="curve" smooth="yes"/>
			<point x="40" y="22"/>
			<point x="70" y="-8"/>
		</contour>
	</outline>
</glyph>
<glyph name="question.sc" format="2">
	<advance width="478"/>
	<outline>
		<contour>
			<point x="152" y="244" type="curve"/>
			<point x="302" y="244" type="line"/>
			<point x="293" y="308"/>
			<point x="428" y="324"/>
			<point x="428" y="428" type="curve" smooth="yes"/>
			<point x="428" y="526"/>
			<point x="344" y="564"/>
			<point x="240" y="564" type="curve" smooth="yes"/>
			<point x="164" y="564"/>
			<point x="102" y="536"/>
			<point x="52" y="494" type="curve"/>
			<point x="126" y="398" type="line"/>
			<point x="160" y="424"/>
			<point x="184" y="436"/>
			<point x="218" y="436" type="curve" smooth="yes"/>
			<point x="243" y="436"/>
			<point x="264" y="426"/>
			<point x="264" y="404" type="curve" smooth="yes"/>
			<point x="264" y="358"/>
			<point x="134" y="318"/>
		</contour>
		<contour>
			<point x="226" y="-12" type="curve" smooth="yes"/>
			<point x="284" y="-12"/>
			<point x="326" y="34"/>
			<point x="326" y="92" type="curve" smooth="yes"/>
			<point x="326" y="150"/>
			<point x="284" y="196"/>
			<point x="226" y="196" type="curve" smooth="yes"/>
			<point x="168" y="196"/>
			<point x="126" y="150"/>
			<point x="126" y="92" type="curve" smooth="yes"/>
			<point x="126" y="34"/>
			<point x="168" y="-12"/>
		</contour>
	</outline>
</glyph>
<glyph name="seven.sc" format="2">
	<advance width="477"/>
	<outline>
		<contour>
			<point x="119" y="0" type="curve"/>
			<point x="288" y="0" type="line"/>
			<point x="300" y="207"/>
			<point x="310" y="290"/>
			<point x="442" y="427" type="curve"/>
			<point x="442" y="532" type="line"/>
			<point x="33" y="532" type="line"/>
			<point x="33" y="392" type="line"/>
			<point x="262" y="392" type="line"/>
			<point x="156" y="259"/>
			<point x="130" y="158"/>
		</contour>
	</outline>
</glyph>
<glyph name="two.sc" format="2">
	<advance width="493"/>
	<outline>
		<contour>
			<point x="37" y="0" type="line"/>
			<point x="445" y="0" type="line"/>
			<point x="445" y="141" type="line"/>
			<point x="375" y="141" type="line" smooth="yes"/>
			<point x="350" y="141"/>
			<point x="307" y="139"/>
			<point x="278" y="135" type="curve"/>
			<point x="342" y="189"/>
			<point x="428" y="281"/>
			<point x="428" y="369" type="curve" smooth="yes"/>
			<point x="428" y="472"/>
			<point x="349" y="544"/>
			<point x="230" y="544" type="curve" smooth="yes"/>
			<point x="152" y="544"/>
			<point x="84" y="517"/>
			<point x="23" y="456" type="curve"/>
			<point x="113" y="366" type="line"/>
			<point x="140" y="387"/>
			<point x="169" y="412"/>
			<point x="209" y="412" type="curve" smooth="yes"/>
			<point x="244" y="412"/>
			<point x="266" y="396"/>
			<point x="266" y="352" type="curve" smooth="yes"/>
			<point x="266" y="285"/>
			<point x="165" y="197"/>
			<point x="37" y="96" type="curve"/>
		</contour>
	</outline>
</glyph>
<glyph name="yu.b" format="2">
	<advance width="790"/>
	<outline>
		<contour>
			<point x="58" y="0" type="line"/>
			<point x="230" y="0" type="line"/>
			<point x="230" y="178" type="line"/>
			<point x="320" y="178" type="line"/>
			<point x="320" y="328" type="line"/>
			<point x="230" y="328" type="line"/>
			<point x="230" y="696" type="line"/>
			<point x="58" y="696" type="line"/>
		</contour>
		<contour>
			<point x="526" y="-12" type="curve" smooth="yes"/>
			<point x="654" y="-12"/>
			<point x="758" y="84"/>
			<point x="758" y="250" type="curve" smooth="yes"/>
			<point x="758" y="416"/>
			<point x="654" y="512"/>
			<point x="526" y="512" type="curve" smooth="yes"/>
			<point x="388" y="512"/>
			<point x="288" y="412"/>
			<point x="288" y="250" type="curve" smooth="yes"/>
			<point x="288" y="88"/>
			<point x="388" y="-12"/>
		</contour>
		<contour>
			<point x="516" y="126" type="curve" smooth="yes"/>
			<point x="472" y="126"/>
			<point x="448" y="174"/>
			<point x="448" y="250" type="curve" smooth="yes"/>
			<point x="448" y="326"/>
			<point x="472" y="374"/>
			<point x="516" y="374" type="curve" smooth="yes"/>
			<point x="564" y="374"/>
			<point x="582" y="326"/>
			<point x="582" y="250" type="curve" smooth="yes"/>
			<point x="582" y="174"/>
			<point x="564" y="126"/>
		</contour>
	</outline>
</glyph>
<glyph name="zero.0s" format="2">
	<advance width="540"/>
	<outline>
		<contour>
			<point x="270" y="-12" type="curve" smooth="yes"/>
			<point x="410" y="-12"/>
			<point x="506" y="103"/>
			<point x="506" y="320" type="curve" smooth="yes"/>
			<point x="506" y="536"/>
			<point x="410" y="646"/>
			<point x="270" y="646" type="curve" smooth="yes"/>
			<point x="130" y="646"/>
			<point x="34" y="537"/>
			<point x="34" y="320" type="curve" smooth="yes"/>
			<point x="34" y="103"/>
			<point x="130" y="-12"/>
		</contour>
		<contour>
			<point x="270" y="110" type="curve" smooth="yes"/>
			<point x="226" y="110"/>
			<point x="186" y="155"/>
			<point x="186" y="320" type="curve" smooth="yes"/>
			<point x="186" y="486"/>
			<point x="226" y="524"/>
			<point x="270" y="524" type="curve" smooth="yes"/>
			<point x="314" y="524"/>
			<point x="354" y="486"/>
			<point x="354" y="320" type="curve" smooth="yes"/>
			<point x="354" y="155"/>
			<point x="314" y="110"/>
		</contour>
		<contour>
			<point x="343" y="134" type="line"/>
			<point x="453" y="134" type="line"/>
			<point x="197" y="504" type="line"/>
			<point x="87" y="504" type="line"/>
		</contour>
	</outline>
</glyph>
<glyph name="zero.pnum" format="2">
	<advance width="596"/>
	<outline>
		<contour>
			<point x="298" y="-12" type="curve" smooth="yes"/>
			<point x="444" y="-12"/>
			<point x="544" y="112"/>
			<point x="544" y="320" type="curve" smooth="yes"/>
			<point x="544" y="527"/>
			<point x="444" y="646"/>
			<point x="298" y="646" type="curve" smooth="yes"/>
			<point x="152" y="646"/>
			<point x="52" y="528"/>
			<point x="52" y="320" type="curve" smooth="yes"/>
			<point x="52" y="112"/>
			<point x="152" y="-12"/>
		</contour>
		<contour>
			<point x="298" y="120" type="curve" smooth="yes"/>
			<point x="254" y="120"/>
			<point x="224" y="155"/>
			<point x="224" y="320" type="curve" smooth="yes"/>
			<point x="224" y="485"/>
			<point x="254" y="514"/>
			<point x="298" y="514" type="curve" smooth="yes"/>
			<point x="342" y="514"/>
			<point x="372" y="485"/>
			<point x="372" y="320" type="curve" smooth="yes"/>
			<point x="372" y="155"/>
			<point x="342" y="120"/>
		</contour>
	</outline>
</glyph>
